<svg id="b5a6bc19-5fd6-4127-b757-493b1acf50a2" data-name="Layer 1" xmlns="http://www.w3.org/2000/svg" viewBox="0 0 1200 1200"><defs><style>.b3022183-5b5c-445b-84eb-3b4c8f35d3db{fill:#231f20;}</style></defs><path class="b3022183-5b5c-445b-84eb-3b4c8f35d3db" d="M693.09,980.8c1.67,1.93,3.27,3.94,5,5.78q29.65,31,59.37,62c1.77,1.84,3.74,3.46,5.74,5.3a17.21,17.21,0,0,1-1.66,2.84q-16.58,17.48-33.23,34.89a14.18,14.18,0,0,1-1.7,1.3l-2.54-.93c-1.58-2-3-4.16-4.77-6q-38.21-40.29-76.49-80.49c-1.13-1.18-2.27-2.34-3.4-3.52a3.72,3.72,0,0,0-4.34-1.17q-8.21,3.45-16.36,7c-1.22.54-1.37,1.77-1.16,3-.06,7.39-.16,14.78-.17,22.17,0,17.65,0,35.29,0,52.94,0,2.32-.18,4.63-.29,7.31l-10.44.52c-11.6-.06-23.19-.08-34.79-.19-2,0-4.1.6-6.29-1.35-.06-2.24-.19-4.82-.19-7.4q0-58.71,0-117.42c0-1.91-.06-3.82,0-5.72a6.59,6.59,0,0,0-2-5.12c-2.93-3-5.85-6-8.71-9.08-1-1.12-1.9-2.42-3-3.85,3.82-4,7.28-7.8,10.88-11.42,1.93-1.93,3.11-4,2.83-6.92a35.41,35.41,0,0,1,0-3.57q0-56.2,0-112.41c0-2.62-.18-5.24-.28-7.86.17-2.13.34-4.27.53-6.74a22.77,22.77,0,0,1,3.81-.62q75.69,0,151.37,0c.45,0,.9.12.69.09l41.83,43.93v16.11c0,1.19,0,2.39,0,3.58.07,3.57-.62,7.42.45,10.62,1,2.92,3.86,5.13,5.93,7.69.06,2-1.63,2.66-2.65,3.8s-2.37,2.22-3.61,3.36v38.8c-1.57,1.71-2.94,3.27-4.37,4.77-10.6,11.14-21.25,22.23-31.78,33.43-2.91,3.1-5.88,5.93-10,7.2a11.9,11.9,0,0,0-2.38,1.37c-7.12,1.93-19.13,7-23.89,10.25Zm-2.37-62.16-.22.07c2.12.78,3.42-.62,4.72-2,4.5-4.7,8.91-9.49,13.5-14.1a8.89,8.89,0,0,0,2.66-7c-.12-8.57,0-17.13,0-25.7,0-10.79-.05-10.73-7.6-18.37a8.58,8.58,0,0,0-6.61-2.86c-25.17.08-50.34,0-75.5.08a23.62,23.62,0,0,0-4,.71v6.63c-.06.71-.17,1.42-.17,2.13q0,43.92,0,87.83c0,.82-.34,1.94,1.38,2.6,1.26-.48,3-1.07,4.6-1.74q16.47-6.71,32.93-13.43,16.13-6.63,32.23-13.3C689.6,920.17,690.57,920,690.72,918.64Z"/><path class="b3022183-5b5c-445b-84eb-3b4c8f35d3db" d="M396.43,856.15q-.1,25.05-.2,50.09c0,3.55,0,7.1,0,10.78,2.52,1.63,5.07,1,7.45,1,27.28.05,54.55,0,81.82.07,2.44,0,5-.68,7.82,1,0,16.36,0,33,0,50l-10.61.41a15.25,15.25,0,0,0-2-.24q-40.08,0-80.16,0a24.92,24.92,0,0,0-4.16.75v68.18a9.59,9.59,0,0,0,2.56.8q40.13,0,80.25-.14l2.79.1c2.64.18,5.31.72,8-.68a189.78,189.78,0,0,0,.07-22.11l-.06-2.54c.17-2.13.35-4.26.54-6.69,5.62-1.18,11.29-.41,16.9-.55s11.36,0,17,0,11.27.06,17.32.09c.79,9.91.27,19.38.36,28.83s0,19.08,0,28.62v29c-1.53.25-2.79.53-4,.63-2.26.18-4.53.24-6.8.34-2.72-.08-5.44-.23-8.17-.24H354.75c-2.05,0-4.1.08-6.13,0a34.12,34.12,0,0,1-4.17-.78c-.05-2.92-.13-5.51-.13-8.1q0-56.88,0-113.76c0-4-.27-8.07-.41-12.1-2.63-3-5.29-5.88-7.87-8.88-1.64-1.89-4-3.27-4.5-6.51,1-1.28,2.11-2.78,3.34-4.14,2.34-2.59,4.73-5.15,7.18-7.64a7.11,7.11,0,0,0,2.28-5.71c-.08-1.19,0-2.38,0-3.57q0-56.9,0-113.77c0-2.38-.19-4.76-.29-7.14.16-2.13.33-4.26.5-6.49,2.22-1.66,4.8-.86,7.21-.86q65-.09,130,0,26.55,0,53.1,0c2.21,0,4.43.14,6.56.22.91,5.68,1.2,75.62.39,86.26-1.18.22-2.45.54-3.73.66-2.25.21-4.52.3-6.77.44-2.5-.06-5-.16-7.5-.17-9.54,0-19.09,0-28.64,0a32.61,32.61,0,0,1-4.89-.81v-7.46c0-6.67,0-13.35,0-20a22,22,0,0,0-.75-4,24.53,24.53,0,0,0-3-.39q-43.31,0-86.6,0a17.6,17.6,0,0,0-3.44.73Z"/><path class="b3022183-5b5c-445b-84eb-3b4c8f35d3db" d="M267.47,132.24c2.16-3.29,5.16-4.4,8.67-4.79,3.84-.43,7.67-1,11.51-1.39q21.69-2.44,43.39-4.83,24.07-2.62,48.16-5.12c4.74-.48,9.51-.63,14.27-.93,3.69,2.74,7.48,5.36,11.07,8.25,10.63,8.59,21.18,17.28,31.75,25.94,1.07.88,2.06,1.86,3.12,2.82.47,6.69,1,13.34,1.4,20q1.69,28.59,3.3,57.16c0,.72.07,1.43.12,2.15.51,7.29.52,7.28,5.8,12q4.16,3.69,8.28,7.45a8.35,8.35,0,0,1,.95,1.47c-1.37,2.89-4,4.84-6,7.29s-4.29,4.9-6.74,7.67c1.31,21,2.81,42.16,3.92,63.34s3,42.21,3.54,63.7l-10.48,1.05-15.55,1c-1.36.09-2.72.14-4.07.25-5,.41-9.92.88-14.89,1.21a21.38,21.38,0,0,1-3.93-.48c-.26-1.32-.51-2.22-.59-3.13q-1.37-15.61-2.66-31.22-1.42-17.39-2.77-34.79c-1-13.73-2-27.47-3.06-41.21a25.81,25.81,0,0,0-1-4.14,24.17,24.17,0,0,0-3.66.68c-3.21,1.17-6.4,2.4-9.55,3.73-16.19,6.82-32.39,13.62-48.52,20.56-8,3.43-15.78,7.26-23.73,10.72-3.14,1.36-4,3.54-3.24,6.76,1.07,9.66,2.09,19.33,3.21,29,2,17,4,33.91,6,50.87a16.54,16.54,0,0,1-.14,2.51c-1.67.41-3.36.86-5.06,1.25-1.95.45-3.91.86-5.86,1.29-4.51.5-9,.91-13.52,1.52-6.74.92-13.45,2-20.19,2.91a16.15,16.15,0,0,1-3.9-.44c-.58-3.15-1.2-5.93-1.58-8.75-1.11-8.24-2-16.51-3.2-24.74-1.55-11.05-3.32-22.07-4.88-33.12-2.32-16.46-4.94-32.89-6.66-49.43-1.11-10.54-1.55-9.25-9.26-15.08-2.53-1.91-5.55-3.27-7.37-6.82,2.85-3.86,5.66-7.89,8.72-11.69a9,9,0,0,0,2.18-7.2c-.2-1.42-.2-2.86-.41-4.27-.71-4.69-1.54-9.37-2.2-14.07q-3.44-24.71-6.76-49.42c-.74-5.64-1.2-11.33-1.78-17l-.07.15m146.83,61.93a26.11,26.11,0,0,0,10.3-4.1,100.44,100.44,0,0,0-.42-14.93c-.72-8.76-1.86-17.5-2.23-26.27-.56-13.4-1.14-11.52-9.69-18.7a8,8,0,0,0-6.26-2.08c-6.55.63-13.1,1.19-19.64,1.8-4.29.41-8.58.8-12.85,1.33-10.12,1.24-20.2,3-30.35,3.75-11.91.87-8.94,1.12-15.88,8.7a12.76,12.76,0,0,0-1.14,1.77c-2.27,1.54-2.22,3.69-1.9,6.26,2.2,18,4.24,35.95,6.37,53.93.89,7.55,1.87,15.09,2.81,22.62,3,.47,5-1.24,7.29-2.2q31.81-13.67,63.6-27.43C373.7,237.75,377,236.22,380.34,234.74Z"/><path class="b3022183-5b5c-445b-84eb-3b4c8f35d3db" d="M702.6,250.31q2.26-2.73,4.52-5.48c1-.63,1.94-1.22,2.87-1.89,4.48-3.22,7.84-7.12,7.51-13.36-.06-1.16.29-2.35.33-3.53q.79-20.3,1.55-40.59.33-8.91.6-17.81c.17-5.45.3-10.9.45-16.34.2-1.82,1.36-2.94,2.62-4q20.18-17.06,40.31-34.15a7.26,7.26,0,0,1,5.66-1.79c8.16.64,16.32,1.16,24.48,1.85,15.17,1.28,30.34,2.58,45.5,4,15.38,1.42,30.76,3,46.14,4.48a8.15,8.15,0,0,1,5.94,3q17.48,21,35.07,42a11.17,11.17,0,0,1,.91,1.74c-.53,4.73-1,9.93-1.68,15.12q-3.09,25.53-6.24,51.07c-.64,5.2-1.12,10.42-1.86,15.61a8.61,8.61,0,0,0,2,7.2c3.26,3.95,6.31,8.1,9.44,12.15a7.83,7.83,0,0,1-1.17,2.05c-3.85,3.19-8.34,5.58-10.83,10.4-.6,1.16-2.06,1.82-3.55,3.07-3.32,27.53-6.69,55.41-10.07,83.44-1.59,1.33-3.21,2.62-4.78,4-2.24,1.95-5,3.33-6.17,6.46-.3.78-1.27,1.32-2,1.9Q876.09,392.09,862,403.34c-9.59,1.25-19-1.31-28.45-1.85-7.23-.41-14.41-1.57-21.63-2.22-7.68-.69-15.37-1.16-23-1.75-11.3-.88-22.58-2-33.89-2.59-3.68-.2-6.42-1.25-8.88-4.18-6-7.16-12.2-14.11-18.33-21.13-4.29-4.92-8.53-9.89-12.91-14.72a8.11,8.11,0,0,1-2.39-6.38c.11-1.42,0-2.86.1-4.29.44-10.69,1-21.39,1.35-32.09.22-5.95-.23-12,.51-17.85,1.06-8.56.61-17.13,1.13-25.67a9.24,9.24,0,0,0-3-7.57C709.16,257.57,705.92,253.9,702.6,250.31Zm71.53-75.51c-.89,11.63-1.89,23.26-2.66,34.9-1.17,17.82-2.15,35.67-3.26,53.5-1.26,20.21-2.27,40.44-4,60.6-.6,6.82.84,11.8,5.51,16.46,2.62,2.62,5,4.22,8.75,4.43,10.65.61,21.27,1.62,31.9,2.58,9.95.9,19.89,2,29.83,2.9,1.75.17,3.66.76,5-1.13,2.55-2,5.13-3.89,7.65-5.89a8.13,8.13,0,0,0,3-6.15c.9-10.9,1.92-21.79,3-32.68.55-5.92,1.18-11.83,1.8-17.74.69-6.62,1.46-13.23,2.11-19.85.63-6.39,1.13-12.8,1.73-19.19.47-5,1-9.94,1.49-14.9.76-7.33,1.57-14.65,2.3-22,.6-5.92.54-12,1.81-17.73,1.57-7,.34-12.21-4.84-17.19-3.43-3.3-6.89-5.18-11.34-5.49-2.94-.2-5.9-.24-8.84-.55-7-.72-14-1.67-21-2.32q-16.26-1.51-32.54-2.73c-2.21-.16-4.88-.43-6.63.63C780.82,167.75,776.76,170.47,774.13,174.8Z"/><path class="b3022183-5b5c-445b-84eb-3b4c8f35d3db" d="M160.12,1003.83c-.08,2.85-.21,5.71-.21,8.57q0,36.5,0,73v7.51c-1.53.27-2.78.6-4,.7-2.26.18-4.53.22-6.8.32-2.49-.08-5-.22-7.48-.22-9.31,0-18.61,0-27.92,0-1.76,0-3.68.48-5.6-1.73v-7.23c0-38.13.06-76.25,0-114.37,0-13.26,1.55-9-7.22-18.57-2.15-2.36-4.9-4.24-6.33-7.74,3.19-3.72,6.13-7.68,9.6-11,3.16-3,4.07-6.37,4.06-10.73-.14-37.89-.07-75.77-.1-113.66,0-2.36-.29-4.73-.45-7.1.18-2.13.36-4.26.56-6.7a10,10,0,0,1,2.42-.61q23.18-.06,46.36,0a16.27,16.27,0,0,1,2.09.28c1.65,2.36.83,5.08.83,7.59q.09,68,.06,136c0,2.56-.29,5.17.47,8,1.55-.42,2.85-.72,4.11-1.13q37.72-12.25,75.43-24.54A31.87,31.87,0,0,0,243,919a26.49,26.49,0,0,0,4-.66c6.71-2.18,7-.59,7-9.55q-.06-50.09,0-100.18c0-2.36-.33-4.73-.5-7.09.18-2.13.36-4.27.58-6.75,5.54-1.24,11.18-.41,16.77-.56s11.36,0,17,0h16.84c1.81,2.75,1,5.46,1,8q.09,59.42,0,118.84v7.81L319.71,944l-13.89,14.81q0,66.92,0,134.43l-10.82.64c-2.49-.08-5-.22-7.47-.22-9.31,0-18.61,0-27.92,0-1.76,0-3.66.43-5.58-1.74v-80.13c0-6.91,0-13.82,0-20.73-.06-6.62.28-13.26-.25-19.86-1.09-.22-1.82-.62-2.38-.45q-45.46,14.57-91,29.26C160.26,1001.53,160.19,1002.68,160.12,1003.83Z"/><path class="b3022183-5b5c-445b-84eb-3b4c8f35d3db" d="M922.22,1013.76c.18-2.12.37-4.24.58-6.64a10.41,10.41,0,0,1,2.49-.65q23.16,0,46.32,0a16.22,16.22,0,0,1,2.33.4c1.4,7-.06,14.11.79,21,3.43,3.63,6.76,7.18,10.41,11.05.69.06,1.8.22,2.91.22q31,0,62,0c1.58,0,3.17-.17,4.75-.26a4.08,4.08,0,0,0,4.45-.87c2.59-2.66,5.28-5.25,7.7-8.08,3-3.45,2.29-9.67-1.22-12.68q-18.42-15.84-36.9-31.61c-3.34-2.86-6.78-5.58-10-8.52a7.58,7.58,0,0,0-7-1.87,19,19,0,0,1-3.33.69c-3.76.06-7.58,1.14-11.68-.41-.17-3.3-.37-6.36-.49-9.42-.26-6.22-1.77-11.69-7.54-14.86a17.91,17.91,0,0,1-2.62-2.27q-17.35-15-34.71-29.91C943.19,912,935,904.86,926.61,897.9a10.62,10.62,0,0,1-4.05-9.17c.2-15.48.15-31,0-46.46,0-3.56.73-6.31,3.27-8.89,8.49-8.61,16.77-17.45,25.09-26.25,1.58-1.67,3-3.55,4.45-5.34l7.93-7.41h115.57l41.31,43.35v42.66c-3.44,2-7.26.11-10.68,1.33-2.49-.05-5-.14-7.48-.15-9.28,0-18.57,0-27.86,0-1.76,0-3.65.41-5.59-1.73,0-3.24.05-7,0-10.8-.17-11.09,1.2-7.54-6.33-16.07-2.91-3.31-6-4.28-10.19-4.24-20.16.18-40.32,0-60.48.1-7.44,0-5.69-1.07-11.71,5.28a14.07,14.07,0,0,0-1.23,1.69l-4,3.58v9l53.3,46.08c6.85.79,13-1.9,19.75-.87.58,6.31,1.14,12.43,1.75,19.12l70.82,60.87v56.6c-.82,1-1.77,2.34-2.87,3.5-11.56,12.17-23.2,24.25-34.67,36.51-2.23,2.39-4.6,3.7-7.7,3.71-3-.08-5.9-.22-8.85-.23H971.49c-1.59,0-3.19-.09-4.77,0a7.17,7.17,0,0,1-6-2.56q-17.76-18.78-35.66-37.43a8.45,8.45,0,0,1-2.41-6.37c.08-8.58.06-17.17,0-25.75C922.6,1019,922.36,1016.37,922.22,1013.76Z"/><path class="b3022183-5b5c-445b-84eb-3b4c8f35d3db" d="M940.32,343.32c.68-3.47,1.36-6.94,2.12-10.8a7.74,7.74,0,0,1,2.38-.34q22.5,3.49,45,7.12a14.37,14.37,0,0,1,2.61,1c.14,6.63-1.86,12.8-2.36,19.83l8.12,11.79c7.34,1.38,14.69,2.72,22,4.13q21.38,4.14,42.72,8.32c1.34.26,2.69.41,4,.66,1.76.33,3-.61,4.24-1.74,2.55-1.52,5.17-2.94,7.62-4.62a4.92,4.92,0,0,0,1.94-2.77c.7-3.52,1.13-6.94-1.72-10-3.47-3.76-6.54-7.92-9.84-11.86-9-10.73-18.07-21.4-27-32.19-2.4-2.89-5-4.46-8.82-4.38-4.49.1-8.89-.94-13.65-2.13.17-3.14.28-6,.49-8.77.14-1.89.43-3.77.63-5.67a7.8,7.8,0,0,0-2.17-6.45c-5.8-6.38-11.38-13-17.21-19.34q-20.33-22.17-40.81-44.18a9.17,9.17,0,0,0-1-1c-2.65-2.13-3.21-5-2.72-8.27,1.25-8.46,2.52-16.92,3.57-25.41.78-6.36,1.23-12.77,1.83-19.15a12.7,12.7,0,0,1,5.17-7.1q20.28-13.77,40.35-27.9a11,11,0,0,1,9-1.88c21.43,4,42.88,7.87,64.29,11.94,15.84,3,31.61,6.37,47.45,9.36a11.93,11.93,0,0,1,8.29,5.41c9.38,13.75,18.94,27.35,28.42,41,.92,1.33,1.69,2.78,2.63,4.33-2.83,13.21-5.64,26.41-8.53,39.91l-8.23-.53a20.3,20.3,0,0,0-3.11-1.3c-10.83-2.45-21.68-4.84-32.52-7.25-2.82-.62-5.77-.86-8.57-2.71.59-3.58.73-7.23,1.84-10.51,2.16-6.39.29-11.31-3.46-16.37a14.52,14.52,0,0,0-10.1-6.2c-6-1-12-2.33-18-3.48-13.79-2.64-27.56-5.46-41.41-7.7-3.42-.55-7-2.92-10.57-.78-3.15,1.88-6.14,4.05-9.19,6.11-.37.25-.89.5-1,.88-.4,1.07-.64,2.2-.94,3.31-.38,1.59-.77,3.17-1.15,4.74l47.85,53.8,18.63,2.12c1.16,3.13.21,6.18.08,9.16s-.59,6.12-.93,9.48c19.9,23.39,39.52,47.1,58.48,71.67-.43,2.12-.83,4.2-1.26,6.26-2.87,13.7-5.79,27.4-8.61,41.11-.75,3.63-2,6.65-5.53,8.31-2,.94-3.7,2.68-5.54,4.05a8.44,8.44,0,0,0-1.9.7q-16.34,10.89-32.61,21.86c-.34.23-.51.76-.77,1.15a22.11,22.11,0,0,1-4,0c-13.58-2.68-27.12-5.57-40.71-8.14-20.5-3.87-41-7.56-61.56-11.23a10.26,10.26,0,0,1-7.24-4.64c-5-7.37-10.28-14.52-15.49-21.73q-6.37-8.81-12.85-17.55a8,8,0,0,1-1.72-7.23,88,88,0,0,0,1.63-11.26C939.45,353.24,939.85,348.28,940.32,343.32Z"/><path class="b3022183-5b5c-445b-84eb-3b4c8f35d3db" d="M630.38,317.51c.19-3.07.39-6.15.6-9.54,5.58-1.33,11.23-.37,16.83-.47s10.91,0,16.36.23c5.62.22,11.31-.21,16.76,1.11a6.34,6.34,0,0,1,.48,1.61c-.33,12.15-.72,24.31-1,36.46a7.6,7.6,0,0,1-2.35,5.65c-12.25,12.08-24.43,24.26-36.65,36.37a14.21,14.21,0,0,1-2.27,1.51,48.69,48.69,0,0,0-6.63-.92c-18.86-.08-37.71,0-56.56,0a32.61,32.61,0,0,0-4.08.09c-13.12,1.64-26.32.53-39.46,1.14a7,7,0,0,1-5.45-2.36q-10.65-10.53-21.42-20.94c-4.68-4.52-9.42-9-14.15-13.42a7.59,7.59,0,0,1-2.48-5.61c-.41-11.89-1-23.78-1.45-35.67-.53-12.85-1-25.69-1.57-38.53-.09-1.89-.69-3.76-.74-5.65a8,8,0,0,0-3-6.1c-4.16-3.69-8.24-7.47-12.36-11.21l3.33-3.75c3.54-1.59,4.93-5.52,7.78-7.86,2.16-1.76,2.82-4.08,2.7-6.94-.37-8.33-.62-16.65-1.16-25-1.06-16.17-1.27-32.39-1.92-48.59-.12-3.07-.68-6.12-1-9.18a6.35,6.35,0,0,1,.71-1.19q20.25-20.7,40.46-41.3c2.11-.1,3.91-.25,5.71-.27q49.41-.57,98.82-1.11c5.45-.06,10.91.11,16.36.09a6.42,6.42,0,0,1,4.94,1.88q20,19.88,40.14,39.69c-.49,13.94-1,27.51-1.45,41.44-1.35.22-2.62.53-3.9.62-2,.15-4.07.16-6.1.23-4.51-.36-9-.92-13.55-1-8.17-.22-16.34-.14-24.52-.27a28.74,28.74,0,0,1-4.29-.68,8.73,8.73,0,0,1-.53-1.8c-.06-3.1-.1-6.19-.09-9.29,0-9.57,0-9.57-6.92-15.71-.52-.46-1.11-.85-1.61-1.33a8.5,8.5,0,0,0-6.86-2.47c-1.36.1-2.73,0-4.09,0-19.06.06-38.12-.34-57.16,1-3.61.26-7.22.39-10.83.58-2.83,2.74-5.67,5.47-8.48,8.23a6.72,6.72,0,0,0-.76,1.17c-1.21,1.39-1,3.09-.92,4.74q1.49,55.77,3,111.52c.34,12.87.69,25.74.75,38.61,0,3.7,1.49,6,3.73,8.66,4.63,5.51,9.91,6.86,16.83,6.57,18.15-.78,36.33-.54,54.5-.73,2.26,0,4.52-.22,6.78-.33,1.7-1.49,3.32-3.12,5.13-4.44,5-3.68,6.43-8.71,5.28-14.79C630.47,318,630.42,317.74,630.38,317.51Z"/><path class="b3022183-5b5c-445b-84eb-3b4c8f35d3db" d="M32.93,180c-.29-2.32-.58-4.64-.85-6.74a6.06,6.06,0,0,1,.51-.81,1.27,1.27,0,0,1,.55-.41c53-12,106.2-22.58,159.64-32a21.46,21.46,0,0,1,3.16,0c1.95,8.25,2.77,16.7,4,25.06,1.25,8.19,2.51,16.38,3.82,24.93l-11.38,2.92c-2.89.37-5.8.65-8.67,1.13q-13.63,2.31-27.24,4.78c-1.95.35-3.84,1-5.72,1.57a13.32,13.32,0,0,0,.52,8q4.06,24.23,8.14,48.47c1.07,6.3,2.19,12.6,3.26,18.73l15.37,10.66c-3.2,5.82-7.52,10.39-10.85,16.18Q177.87,364.77,188.65,428l-11.52,2.83c-12.29,1.69-24.3,5.13-36.9,7-.68-2.47-1.39-4.45-1.78-6.51q-10.29-53.51-20.5-107c-.72-3.72-1.6-7.4-2.4-11.1-3.16-2.28-6.3-4.6-9.48-6.85-2-1.42-4.3-2.45-5.78-4.68,3.59-5.35,7-10.4,10.45-15.61-4.72-24.64-9.43-49.31-14.08-73.6-2.49-1.48-4.52-.85-6.47-.41-13.3,3-26.59,6-39.88,9-2.42.55-4.85,1.24-7.57.15a18.14,18.14,0,0,1-1.25-3.09c-1.47-6.72-2.8-13.48-4.3-20.2C35.85,191.9,34.35,185.94,32.93,180Z"/><path class="b3022183-5b5c-445b-84eb-3b4c8f35d3db" d="M786.33,939.67l.13-.53.5-.12c3.16,1.21,4.52-1.57,6.11-3.33,2.26-2.51,5.66-4.26,5.78-8.41,0-.72,0-1.43,0-2.15,0-1,0-1.9,0-2.85q0-56.78,0-113.54c0-2.38-.14-4.76-.22-7.13.26-2.11.52-4.22.82-6.68a7.66,7.66,0,0,1,2.32-.72q23.54,0,47.06,0a6.88,6.88,0,0,1,1.7.65c.08,2.32.24,4.87.24,7.42q0,59.76,0,119.53c0,8.45-1,6.27,4.77,12.44,2.86,3.05,5.76,6.07,8.82,9.29-1.73,3.14-4.32,5.1-6.5,7.4s-4.6,4.6-7,7v135c-1.61.26-2.86.53-4.13.63-2.26.18-4.53.26-6.8.38-2.49-.09-5-.25-7.48-.26-9.54,0-19.08,0-28.62,0a33.93,33.93,0,0,1-4.81-.77c0-3-.13-5.58-.13-8.17q0-59,0-118c0-1.67-.08-3.34,0-5a7.15,7.15,0,0,0-2.24-5.72c-2.94-3-5.81-6-8.71-9.07a4.64,4.64,0,0,1-1.41-4.49A10.05,10.05,0,0,0,786.33,939.67Z"/><path class="b3022183-5b5c-445b-84eb-3b4c8f35d3db" d="M504.33,517.53c.75-2.92,1.6-5.64,2.15-8.41,2.67-13.42,9.59-24.06,19.35-32.83,10.21-9.18,22.17-14.85,35-18.42a176.82,176.82,0,0,1,52-6.32c28.63.73,56.32,6.78,83.45,16.11,7.31,2.52,12.54,7.55,16.35,14.33a45.41,45.41,0,0,1,5.74,21.83c.18,11.21.17,22.42.24,33.63,0,4.26.1,8.51.15,13,1.78.72,3.2,1.4,4.68,1.86a155.12,155.12,0,0,1,48.24,24.43,22,22,0,0,0,6.1,3c7.77,2.73,15.43,5.68,22.61,9.86a64.89,64.89,0,0,1,16.74,13.37,42.87,42.87,0,0,1,9.41,18c3.21,12.68-3.81,25.51-13.91,30.31a29.56,29.56,0,0,1-11.84,3,340.1,340.1,0,0,1-38.84-.91c-9.06-.73-18.14-1.5-27.24-.62-25.94,2.53-51.14,8.36-75,19.51-38.84,18.14-78.79,33.13-119.38,46.28A487.9,487.9,0,0,1,491.61,732a244.7,244.7,0,0,1-33.06,4.67c-19.77,1.46-36-6.31-49.27-21.25a89.55,89.55,0,0,1-21.21-44.92c-5.33-30.93-.31-60.22,14-87.82A101.22,101.22,0,0,1,423.41,555c21.16-19.64,45.66-31.74,73.66-35.94,2-.3,4-.67,6.05-1A9.92,9.92,0,0,0,504.33,517.53ZM483.72,727.21a53.62,53.62,0,0,0,6.75-.78c15.47-3.82,31.07-7.16,46.31-11.79,14.81-4.5,29.41-9.91,43.81-15.72,27.34-11,54.46-22.65,81.69-34s55.08-18.08,84.32-17.79c15.68.15,31.36,1.13,47,2a37.54,37.54,0,0,0,11.5-.93c7.87-2,13.3-8.79,14.16-17.28.78-7.76-1-14.8-5.91-20.63a49.75,49.75,0,0,0-9.57-9.07,90.06,90.06,0,0,0-44-15.87c-11.15-1-22.24,0-33.34,1.31a301.67,301.67,0,0,0-38.27,6.73c-8.44,2.12-16.37,5.63-24.46,8.79a216.23,216.23,0,0,0-38.51,19.72,334.45,334.45,0,0,0-49.37,39.31,157,157,0,0,1-14.14,12.35c-16.32,12.13-32.85,24-49.26,36-10.15,7.43-21,13.2-33.05,16.5-5.53.45-11.06,1-16.6,1.33-2.66.17-5.34,0-8,0l-15-4.49,3.09-1.67,3.73.58c1.26,1.45,2.81,1.29,4.41.89,2.95.1,5.91.09,8.85.33a45.15,45.15,0,0,0,22.62-4c7.07-3.22,14.15-6.51,20.91-10.37,19.42-11.07,37.24-24.66,54.73-38.77a118.64,118.64,0,0,0,14.08-13.47,14.09,14.09,0,0,0,1.36-2.64c-2.84-.28-5.07-.61-7.3-.71a214.94,214.94,0,0,1-35.8-4.7c-11.82-2.54-23.4-5.94-33.73-12.85a7.64,7.64,0,0,0-5.14-1.39c-5,.47-9.93,1-14.89,1.5l-3.24-.17c3.93-3.54,8.77-4.66,13.63-5.74,1.51-.33,3-.72,4.7-1.12,3.1-28.56,6.19-56.86,9.22-85.16a56.31,56.31,0,0,0,0-5.83,15.24,15.24,0,0,0-2.58-.65c-9.82-.76-19.5.09-28.79,3.62-5.3,2-10.37,4.69-15.55,7.07l-1.85-1.79c15.06-10.54,31.94-14.22,50.08-14.07.22-2.43.4-4.45.61-6.81a32.45,32.45,0,0,0-3.75,0q-41.52,5.52-71.93,35.71a92.94,92.94,0,0,0-15.92,21.29,136.81,136.81,0,0,0-17.17,57.4,102.61,102.61,0,0,0,17.73,66,62.26,62.26,0,0,0,20.61,19.41c4.83,2.79,9.93,4.81,15.45,5.09,5,.25,10,0,14.95,0A68.06,68.06,0,0,0,483.72,727.21Zm229.19-147c.12-1.48.32-2.86.32-4.24q-.06-21.81-.18-43.64c0-8.11,0-16.22-.13-24.32a47.8,47.8,0,0,0-4.44-20c-3.33-7.12-8.28-12.46-15.67-15-1.94-.66-3.83-1.5-5.74-2.27a191.43,191.43,0,0,0-70.53-14.08c-8.62-.07-17.26.51-25.85,1.27a147.17,147.17,0,0,0-39.17,8.86A75.16,75.16,0,0,0,525.26,483a49.4,49.4,0,0,0-14.59,26.84c-3.19,16.62-5,33.43-6.7,50.25-1.33,12.8-2.46,25.62-3.61,38.44-.51,5.69-.87,11.4-1.25,17.11,0,.43.3.88.61,1.72.75.34,1.75.85,2.78,1.25A234.31,234.31,0,0,0,537.13,629a199.56,199.56,0,0,0,52.8,5c3.51-.17,6.73-.75,9.52-3.15a31.24,31.24,0,0,1,2.83-2,307.71,307.71,0,0,1,92.58-44.15C700.74,583.05,706.7,581.73,712.91,580.19Zm48.28-2.92a202.94,202.94,0,0,0-34.3-17.2c-2.44-1-4.88-2.5-8-1.81-.74,3.84-.41,7.61-.42,11.35s-.67,7.42.44,10.7Z"/><path class="b3022183-5b5c-445b-84eb-3b4c8f35d3db" d="M895.15,771a9.59,9.59,0,0,1,5.17-5.26c4-1.65,7.85-3.62,11.8-5.4a16.33,16.33,0,0,1,2.77-.67c3.11,6,5.36,12.14,8,18.39l-19.11,51.49-10.79,6.22-7.17,1.89c-3.74-5.79-5.34-12.24-8.08-18,3.77-10.18,7.49-20.06,11.08-30C891,783.43,893,777.17,895.15,771Z"/><path class="b3022183-5b5c-445b-84eb-3b4c8f35d3db" d="M873.81,626.24a131.88,131.88,0,0,0-.13,13.77,3.93,3.93,0,0,0,.87,1.82c2,3,2,3,1.45,7.78a96.68,96.68,0,0,1-14.38.11c-.15-3.33-1.27-6.24,2-8.4.62-.41.6-2.19.61-3.33.06-5.72,0-11.44,0-17.16,0-1.94-.14-3.52-2-4.84-1.31-.94-1-1.38-.43-6.76a6.26,6.26,0,0,1,1.85-.6c6.11,0,12.23,0,18.45,0,2.92,6,3.13,12.6,5.87,18.93a15.9,15.9,0,0,0,1.73-3.15c1.33-5,2.52-10.07,3.83-15.4,7-.89,13.74-.23,20.38-.47,1.83,5.9,1.77,6.18-2,9.34,0,6,0,12.2,0,18.39,0,2.51-.44,4.93,2.43,6.73,1.7,1.06.53,3.92.59,6.27-3,1.14-6,.53-8.83.63-2.69.09-5.39,0-8.39,0-.68-3.41-1.64-6.27,1.79-8.32a2.56,2.56,0,0,0,.85-1.82,96.7,96.7,0,0,0-.19-12.45c-1.2,1.45-1.91,1.94-2.09,2.59-1.4,5-2.67,10.09-4,15.12-.43,1.56-1,3.07-1.6,4.64H881.1c-1.1-3.91-2.13-7.74-3.29-11.54C876.74,634.59,876.43,630.76,873.81,626.24Z"/><path class="b3022183-5b5c-445b-84eb-3b4c8f35d3db" d="M954.55,615.73v-5.91c.52-.46.84-1,1.19-1,6.77-.47,13.53-.27,20-.2,1.66,2.46,1.29,4.61.82,6.66-.19.81-1.11,1.43-1.82,2.28.56.93,1.11,2,1.79,2.91s1.45,1.71,2.53,3c1-1.14,1.72-1.92,2.35-2.78s1.27-1.95,2.05-3.15l-3.33-1.6a33.26,33.26,0,0,1-.31-3.35c0-1.14.2-2.29.35-3.84,3.17-.06,6.07-.14,9-.17,2.72,0,5.45,0,8.07,0,1.88,2.26,1.24,4.62.92,7.29-6.84.63-8.71,7.15-12.38,11.57,4.77,9,8.16,13.25,12.68,15.8.05,1,.19,2.17.16,3.33a18.23,18.23,0,0,1-.32,2.37c-1.37,1.28-11.24,1.45-21.5.64a8.15,8.15,0,0,1,1-8.76l-3.2-5c-.75.22-1.33.2-1.57.5-1.17,1.42-2.24,2.92-3.62,4.75l3.58,2c.08,1.83.17,3.91.26,5.79-2,1.55-11.36,1.67-18.42.41a11.57,11.57,0,0,1-.42-1.93c-.06-1.41,0-2.82,0-4.64,4.19.39,6.48-2,8.41-5.17,1.34-2.16,2.9-4.19,4.55-6.56-3.23-4.65-6.23-9.1-9.41-13.41C957.32,616.63,956,616.42,954.55,615.73Z"/><path class="b3022183-5b5c-445b-84eb-3b4c8f35d3db" d="M261,624c.82-2,1.56-4,2.46-5.88,4.5-9.61,15.68-13.14,23.6-7.46a9.59,9.59,0,0,0,1.46.66c2.38-3.79,5.87-2.89,9.55-2.36.81,5.59.41,11,.36,16.52-3.3,1.12-6.21.43-9.17.65a37.06,37.06,0,0,0-2.29-4.51c-2.5-3.55-6.44-3.78-9.37-.68-3.88,4.08-4.05,13-.34,17.13a6.67,6.67,0,0,0,8.71,1c1.21-.8,1.52-2.93.25-3.43-3.27-1.28-1.87-3.75-2-6.35a22,22,0,0,1,3.93-.63c5.2.12,10.4.39,15.61.53.31,0,.64-.62,1-1l.1,4.19c-2.4,1.32-4.16,3.7-4.21,6-.07,3.52,0,7,0,10.44-6.84,1.77-9.47,1.52-13.24-1.26-.65.29-1.46.62-2.26,1-8.68,4-17.53.84-21.9-7.9-.83-1.67-1.45-3.47-2.17-5.2Q261,629.7,261,624Z"/><path class="b3022183-5b5c-445b-84eb-3b4c8f35d3db" d="M304.76,632.38l-.1-4.19c.22-12.88,8.11-21,20.1-20.59a28.07,28.07,0,0,1,5.4.66,16.29,16.29,0,0,1,12.36,11,29.18,29.18,0,0,1,.16,19.56,16.43,16.43,0,0,1-10.84,10.93,22.62,22.62,0,0,1-12.73.61C310,648.16,305.51,642.53,304.76,632.38Zm25.53-2.24c-.61-4.44-.49-8.09-2.59-11.16s-5.4-2.87-7.3.15c-3,4.71-3,15.13,0,19.81,2.25,3.53,6.39,3.29,8-.75A51.81,51.81,0,0,0,330.29,630.14Z"/><path class="b3022183-5b5c-445b-84eb-3b4c8f35d3db" d="M258.94,635.49c-3.11,10-10.17,14.11-19.69,14.35-5.86.15-11.72.1-17.91,0-.23-3.63-1.68-7,2.73-8.94V617.62c-3.21-2.24-3.21-2.24-2.52-8.69a35.32,35.32,0,0,1,3.7-.38c4.09,0,8.18-.15,12.26,0a38.46,38.46,0,0,1,8.06,1.12,18.06,18.06,0,0,1,12.25,10.44c.58,1.27,1.09,2.58,1.63,3.87Zm-22.52,5.88c3.94.72,6.56-.51,8-3.56a19.14,19.14,0,0,0,.07-17.18c-1.57-3.22-4.32-4.58-8.08-3.45Z"/><path class="b3022183-5b5c-445b-84eb-3b4c8f35d3db" d="M1072.86,642.53c-7,0-14.06,0-21.09,0a25,25,0,0,1-4.75-.21,8.87,8.87,0,0,1-6.91-8.57,8.56,8.56,0,0,1,6.5-8.83,19.58,19.58,0,0,1,4.72-.43q21.43,0,42.87,0a20.63,20.63,0,0,1,4.72.4,8.65,8.65,0,0,1,6.63,8.76,8.93,8.93,0,0,1-6.85,8.64,24.15,24.15,0,0,1-4.74.24C1086.93,642.54,1079.89,642.53,1072.86,642.53Z"/><path class="b3022183-5b5c-445b-84eb-3b4c8f35d3db" d="M147,642.53c-7,0-14.07,0-21.1,0a20.14,20.14,0,0,1-4.73-.31c-4-1-6.47-4.65-6.4-9A8.28,8.28,0,0,1,121,625a18.52,18.52,0,0,1,4.71-.48q21.77-.06,43.54,0a18.27,18.27,0,0,1,4.05.33,9,9,0,0,1,6.91,8.59,9.11,9.11,0,0,1-7.37,9,28.91,28.91,0,0,1-4.75.16C161.06,642.54,154,642.53,147,642.53Z"/><path class="b3022183-5b5c-445b-84eb-3b4c8f35d3db" d="M921.23,640.79V617.66L918,615.58v-6.46c5.59-1.13,11-.45,16.4-.57s10.9,0,16.54,0c1.68,4.32.41,8.49.88,12.79a22.76,22.76,0,0,1-9.32.12c-.37-1.52-.69-2.84-1.08-4.47h-7.49c-1.06,2.22-.63,4.45-.4,7.13l9.2.47c1.71,2.28.91,4.8.77,7.8l-9.77.42a18.35,18.35,0,0,0,.14,8.84c1.47.13,2.78.31,4.1.33,1.09,0,2.18-.17,3.4-.28.35-1.69.64-3,.95-4.54,2.83-1,5.75-.5,9.09-.39a45.57,45.57,0,0,1,0,12.88H918.14c-.19-2.19-.37-4.21-.56-6.32Z"/><path class="b3022183-5b5c-445b-84eb-3b4c8f35d3db" d="M352.39,650a6.41,6.41,0,0,1-6.7-6.41,6.44,6.44,0,1,1,12.85.32A5.85,5.85,0,0,1,352.39,650Z"/><path class="b3022183-5b5c-445b-84eb-3b4c8f35d3db" d="M1007.11,650a6.47,6.47,0,0,1-6.47-6.69,6.46,6.46,0,1,1,12.86.85C1013.32,647.8,1010.8,650.1,1007.11,650Z"/><path class="b3022183-5b5c-445b-84eb-3b4c8f35d3db" d="M258.94,635.49l.51-11.48,1.5,0q0,5.73,0,11.47Z"/><path class="b3022183-5b5c-445b-84eb-3b4c8f35d3db" d="M490,1016.24c-3.23-2-6.82-1-10.26-1.29.72-.4,1.41-1.1,2.14-1.14,2.68-.16,5.37-.1,8.06-.11Z"/><path class="b3022183-5b5c-445b-84eb-3b4c8f35d3db" d="M479.52,1037.8,482,1039l-2.79-.1A1.09,1.09,0,0,1,479.52,1037.8Z"/><path class="b3022183-5b5c-445b-84eb-3b4c8f35d3db" d="M688.57,920.25c.43-1,.89-1.88,2.15-1.61C690.57,920,689.6,920.17,688.57,920.25Z"/><path class="b3022183-5b5c-445b-84eb-3b4c8f35d3db" d="M536.13,704.55c4.08-1.51,6.43-3.75,8.9-5.76,17.58-14.37,35.21-28.65,52.69-43.15a233.92,233.92,0,0,1,33-22.81q20.94-12,42.9-21.85a106,106,0,0,1,10.09-4.29c26.12-8.58,52.72-12.53,80-8.31,14.95,2.31,29.28,6.69,42,15.63a4.88,4.88,0,0,0,1.83.38c.07-2.72.09-2.75-.53-3.23A78,78,0,0,0,789.13,601a110.2,110.2,0,0,0-40.64-8.05,185.81,185.81,0,0,0-57.29,7.48c-33.17,10-63.18,26.5-90.62,48.29-11.78,9.36-23.35,19-35,28.53l-23.7,19.33C539.57,698.4,537.16,700.18,536.13,704.55Z"/><path class="b3022183-5b5c-445b-84eb-3b4c8f35d3db" d="M479.42,726l4.3,1.22a68.06,68.06,0,0,1-20.8,2.53c-1.22-1.45-2.89-1-4.41-1.23a23.26,23.26,0,0,1-3.7-1.23c2.67,0,5.35.21,8,0C468.36,727,473.89,726.44,479.42,726Z"/><path class="b3022183-5b5c-445b-84eb-3b4c8f35d3db" d="M439.77,722.79c-3.61-.56-6.67-2.44-9.53-4.65-.46-.36-.45-1.57-.37-2.36,0-.2,1.38-.63,1.67-.37,3.34,2.89,7.58,3.75,11.32,5.71Z"/><path class="b3022183-5b5c-445b-84eb-3b4c8f35d3db" d="M476.69,635.49l-7.2,2.84c1.49-2,2.24-3.2,4-3Z"/><path class="b3022183-5b5c-445b-84eb-3b4c8f35d3db" d="M446.59,721.7l4.41.89C449.4,723,447.85,723.15,446.59,721.7Z"/><path class="b3022183-5b5c-445b-84eb-3b4c8f35d3db" d="M523.41,494.84a13.56,13.56,0,0,1,1.29,2.46c1.42,6.46,6,8.61,11.57,9.13,8.27.76,16.27-.88,24.13-3.48,7.14-2.37,14.28-4.7,21.48-6.85A319.06,319.06,0,0,1,644.73,484a235,235,0,0,1,36.09-.15,29.34,29.34,0,0,1,8.52,1.53,2.53,2.53,0,0,1-2.42,3.07,27.76,27.76,0,0,1-4.73-.13c-34.1-2.19-67.57,1.27-100.14,12.54-4.95,1.72-9.82,3.69-14.67,5.71A78.77,78.77,0,0,1,532,512.35a20.41,20.41,0,0,1-7.17-1.94,6.68,6.68,0,0,1-3.83-7.62A65.8,65.8,0,0,1,523.41,494.84Z"/><path class="b3022183-5b5c-445b-84eb-3b4c8f35d3db" d="M615.15,506.82c-1.81,2.13-3.63,4.25-5.41,6.41a45,45,0,0,0-7.32,12c-2.87,7.25-1.78,14,2.46,20.3a31.85,31.85,0,0,0,9.65,8.93,61.34,61.34,0,0,0,19.67,7.78c4,.91,8,1.51,13,2.42a24.15,24.15,0,0,1-3.94.94,59.31,59.31,0,0,1-24.15-3.43c-10.1-3.82-17.69-10.42-21.48-21.38a23.67,23.67,0,0,1,2.13-21.16,36.18,36.18,0,0,1,13.16-13.16Z"/><path class="b3022183-5b5c-445b-84eb-3b4c8f35d3db" d="M615.15,506.82l-2.26-.35,5.4-3.76.62.83Z"/><path class="b3022183-5b5c-445b-84eb-3b4c8f35d3db" d="M453.28,548.05c-1.25,1-2.47,2.07-3.76,3-15.52,11.57-27.6,26.11-35.28,44.54-5.57,13.37-10.08,27.09-12,41.61-1.39,10.7-1.42,21.42,1,32a43.45,43.45,0,0,0,6.15,15,5.72,5.72,0,0,1,1.08,1.8,7,7,0,0,1,.15,3.27c-.33,1.06-2,.4-3.14-1.37-4.09-6.47-6.21-13.7-7.51-21.29-1.8-10.49-1.16-20.95.31-31.35,2.81-19.78,8.74-38.42,19.13-55.36,7.45-12.17,16.4-22.84,27.7-31.22a33.36,33.36,0,0,1,3.53-2Z"/><path class="b3022183-5b5c-445b-84eb-3b4c8f35d3db" d="M453.28,548.05l-2.58-1.36,1.56-1,1.85,1.79A.76.76,0,0,1,453.28,548.05Z"/><path class="b3022183-5b5c-445b-84eb-3b4c8f35d3db" d="M536.13,704.55c1-4.37,3.44-6.15,5.74-8l23.7-19.33c11.66-9.51,23.23-19.17,35-28.53C628,626.88,658,610.39,691.2,600.38a185.81,185.81,0,0,1,57.29-7.48A110.2,110.2,0,0,1,789.13,601,78,78,0,0,1,807,611.16c.62.48.6.51.53,3.23a4.88,4.88,0,0,1-1.83-.38c-12.76-8.94-27.09-13.32-42-15.63-27.3-4.22-53.9-.27-80,8.31A106,106,0,0,0,673.59,611q-21.95,9.85-42.9,21.85a233.92,233.92,0,0,0-33,22.81c-17.48,14.5-35.11,28.78-52.69,43.15C542.56,700.8,540.21,703,536.13,704.55Z"/></svg>