<svg id="b1b464f8-f5d9-49b8-bb13-3e88c8077946" data-name="Layer 1" xmlns="http://www.w3.org/2000/svg" viewBox="0 0 1200 1200"><defs><style>.f49a53da-527e-4f3e-8cbb-5bdc4455d8dc{fill:#fe0101;}.be8fe37d-1c90-4a3f-a0b3-f1407e7f32d9{fill:#ff0102;}.a38af088-0803-4f76-80b1-a0ecf96fd4bb{fill:#fe0202;}.e06a9509-c351-4be9-80d1-523df24ed7ce{fill:#fd0101;}.f9bda68c-1e3e-412d-a0b1-633147043201{fill:#711f26;}.b8539b69-a95a-422c-ba6a-2c2e201e79e2{fill:#6c131b;}.a6f84944-a761-49dc-bbbc-d7bdccee3c05{fill:#6c141c;}.bd3ac4eb-103f-4cea-8fac-d01621da1591{fill:#6c151d;}.bafc9a30-9e0b-40fc-b447-cbf7bfef7a00{fill:#6d1118;}.b8a2249b-5d82-4c1d-bd95-0d9630298e18{fill:#6e151d;}.a657bde6-5504-4a08-b77a-f17279dcfad6{fill:#671018;}.b89066b0-1780-4cfe-b154-252471f7f33a{fill:#fe0303;}.a2170633-cae7-41c2-837b-ffdd0fca159a{fill:#6d1921;}.e210f5e6-20ab-406d-bac7-93ef8dce37f2{fill:#6e1b23;}.e6e48c04-1d0e-40da-aa94-fa53ba4715ce{fill:#ff0d0d;}.e2adc8ff-9f8f-4b6d-aed9-81da169e5891{fill:#7b2229;}.b0f634b4-9413-40dd-b253-03059ab4bc3d{fill:#f6f1f1;}.ed3b45c3-791f-4dba-b35f-a99485276477{fill:#fcfafa;}.a6504681-1854-4199-aef7-ab132559cccd{fill:#89464c;}.aa3d4566-88ef-424a-974d-1bae840264b5{fill:#75252c;}.b7291245-8cb6-464a-9583-027c79acda71{fill:#7a2e35;}</style></defs><path class="f49a53da-527e-4f3e-8cbb-5bdc4455d8dc" d="M698.38,977.22c1.67,1.92,3.27,3.93,5,5.77q29.65,31.05,59.37,62c1.77,1.84,3.75,3.47,5.74,5.3a17.4,17.4,0,0,1-1.66,2.85q-16.58,17.47-33.23,34.88a13.42,13.42,0,0,1-1.7,1.3l-2.54-.93c-1.58-2-3-4.15-4.77-6q-38.21-40.28-76.49-80.49c-1.12-1.18-2.27-2.33-3.4-3.51a3.7,3.7,0,0,0-4.33-1.17q-8.22,3.43-16.37,7c-1.22.54-1.37,1.77-1.15,3-.07,7.39-.17,14.78-.18,22.17,0,17.65,0,35.29,0,52.94,0,2.32-.18,4.64-.29,7.31l-10.44.52c-11.6,0-23.19-.08-34.79-.19-2,0-4.1.61-6.29-1.34-.06-2.24-.19-4.82-.19-7.4q0-58.71,0-117.42c0-1.91-.06-3.82,0-5.73a6.56,6.56,0,0,0-2-5.11c-2.93-3-5.85-6-8.71-9.08-1-1.12-1.9-2.43-3-3.86,3.82-4,7.28-7.79,10.89-11.41,1.92-1.94,3.1-4,2.82-6.92a35.61,35.61,0,0,1,0-3.58q0-56.21,0-112.41c0-2.62-.18-5.24-.28-7.85.17-2.14.34-4.27.54-6.75a22.49,22.49,0,0,1,3.8-.62q75.69,0,151.37,0c.45,0,.9.12.69.09l41.83,43.94v16.1c0,1.2,0,2.39,0,3.58.07,3.57-.62,7.42.45,10.63,1,2.91,3.86,5.12,5.93,7.68.06,2-1.62,2.67-2.65,3.8s-2.37,2.22-3.61,3.37v38.8c-1.57,1.7-2.94,3.26-4.37,4.76-10.6,11.14-21.25,22.23-31.78,33.44-2.91,3.09-5.88,5.92-10,7.19a12.71,12.71,0,0,0-2.38,1.37c-7.11,1.93-19.13,7-23.89,10.25ZM696,915.05l-.22.07c2.12.78,3.42-.62,4.72-2,4.5-4.7,8.91-9.49,13.5-14.09a8.93,8.93,0,0,0,2.66-7c-.12-8.56,0-17.13,0-25.7,0-10.79,0-10.73-7.6-18.37a8.58,8.58,0,0,0-6.61-2.86c-25.17.08-50.34,0-75.5.08a24.64,24.64,0,0,0-4,.71v6.63c-.06.71-.17,1.42-.17,2.13q0,43.92,0,87.83c0,.82-.34,2,1.39,2.6,1.25-.47,2.94-1.06,4.59-1.74q16.47-6.69,32.93-13.43,16.13-6.62,32.23-13.29C694.89,916.58,695.86,916.41,696,915.05Z"/><path class="f49a53da-527e-4f3e-8cbb-5bdc4455d8dc" d="M401.72,852.57q-.11,25-.2,50.08c0,3.55,0,7.1,0,10.78,2.52,1.63,5.07,1,7.45,1,27.28,0,54.55,0,81.82.06,2.44,0,5-.68,7.82,1,0,16.37,0,33,0,50L488,966a17.21,17.21,0,0,0-2-.24q-40.08,0-80.17,0a26,26,0,0,0-4.16.75v68.18a9.24,9.24,0,0,0,2.56.8q40.13,0,80.25-.14l2.79.1c2.64.19,5.31.73,8-.68a192,192,0,0,0,.08-22.11c0-.84,0-1.69-.07-2.54.17-2.13.35-4.26.54-6.69,5.62-1.18,11.29-.4,16.9-.54s11.36,0,17,0,11.27.06,17.32.1c.79,9.9.27,19.38.36,28.83s0,19.08,0,28.62v29c-1.53.25-2.78.54-4.05.64-2.26.17-4.53.23-6.8.34-2.72-.09-5.44-.24-8.17-.24q-84.19,0-168.39,0c-2,0-4.09.08-6.13,0a33.93,33.93,0,0,1-4.17-.77c-.05-2.92-.13-5.51-.13-8.1q0-56.88,0-113.77c0-4-.27-8.07-.41-12.1-2.63-2.95-5.29-5.88-7.87-8.87-1.64-1.9-4-3.28-4.5-6.52,1-1.28,2.11-2.78,3.34-4.14q3.51-3.88,7.18-7.64a7.11,7.11,0,0,0,2.28-5.71c-.07-1.18,0-2.38,0-3.57q0-56.88,0-113.77c0-2.38-.19-4.75-.29-7.13.16-2.13.33-4.27.5-6.49,2.22-1.67,4.8-.87,7.21-.87q65-.09,130,0,26.55,0,53.1,0c2.22,0,4.43.14,6.56.22.91,5.68,1.2,75.63.39,86.27-1.18.21-2.45.53-3.73.65-2.25.21-4.51.31-6.77.45-2.5-.06-5-.17-7.5-.17-9.54,0-19.09,0-28.64,0a33.8,33.8,0,0,1-4.89-.8v-7.46c0-6.68,0-13.36-.05-20a23,23,0,0,0-.74-4,27.1,27.1,0,0,0-3-.39q-43.31,0-86.6,0a17.52,17.52,0,0,0-3.44.72Z"/><path class="f49a53da-527e-4f3e-8cbb-5bdc4455d8dc" d="M311.5,321.78c1.06,9.66,2.08,19.32,3.21,29,2,17,4,33.91,6,50.86a16.72,16.72,0,0,1-.14,2.52c-1.66.41-3.35.85-5.06,1.24-2,.45-3.91.86-5.86,1.29-4.51.5-9,.92-13.52,1.53-6.73.91-13.45,2-20.19,2.9a16.13,16.13,0,0,1-3.9-.43c-.58-3.16-1.2-5.94-1.58-8.76-1.11-8.24-2-16.5-3.2-24.74-1.55-11.05-3.32-22.07-4.88-33.12-2.32-16.46-4.94-32.89-6.66-49.42-1.11-10.55-1.55-9.26-9.25-15.09-2.54-1.91-5.56-3.27-7.38-6.82,2.86-3.86,5.66-7.88,8.72-11.69a9,9,0,0,0,2.18-7.2c-.2-1.41-.2-2.86-.41-4.27-.71-4.69-1.54-9.37-2.2-14.07q-3.43-24.7-6.75-49.41c-.75-5.65-1.2-11.34-1.79-17l-.06.15c1,0,1.46-.64,1.39-1.68l-.14.18c1.05,0,1.5-.62,1.4-1.71l-.21.18c1.64-.12,2.07-1.15,1.84-2.69l-.05.07c2.05.08,2.84-1,2.68-3.08l-.07.16c1-.07,1.43-.66,1.4-1.68l-.15.18c1-.06,1.49-.65,1.42-1.71l-.21.21c1.6-.18,2-1.21,1.83-2.73l-.06.08c2,.08,2.8-1,2.72-3l-.06.13c.46-.56.92-1.11,1.39-1.66l-.14.17,1.43-1.71-.18.22a1.49,1.49,0,0,0,1.46-1.74l-.23.23c1.55-.2,2-1.22,1.87-2.71l-.08.09c.47-.52.94-1,1.42-1.55l-.09.09,1.43-1.56-.09.11c.47-.55.93-1.11,1.4-1.67l-.15.2c.48-.58,1-1.15,1.46-1.73l-.2.24c.49-.59,1-1.18,1.48-1.76l-.24.19c1.6,0,2.34-1.11,2.81-2.52a63.42,63.42,0,0,0,5.47-6.37c2.16-3.29,5.16-4.41,8.67-4.8,3.84-.43,7.67-1,11.51-1.39,14.46-1.62,28.92-3.26,43.39-4.83q24.07-2.62,48.16-5.11c4.74-.49,9.51-.63,14.27-.93,3.69,2.74,7.48,5.35,11.07,8.24,10.63,8.59,21.18,17.28,31.75,25.94,1.07.88,2.06,1.86,3.12,2.83.48,6.68,1,13.34,1.4,20q1.69,28.57,3.3,57.16c0,.71.07,1.43.12,2.14.51,7.29.52,7.28,5.8,12,2.78,2.46,5.53,5,8.28,7.46a8.18,8.18,0,0,1,.95,1.46c-1.37,2.89-4,4.84-6,7.29s-4.29,4.9-6.74,7.68c1.31,21,2.81,42.15,3.92,63.34s2.95,42.21,3.55,63.7l-10.49,1-15.55,1c-1.36.09-2.72.14-4.07.25-5,.41-9.92.88-14.89,1.21a21.38,21.38,0,0,1-3.93-.48c-.26-1.31-.51-2.21-.59-3.13q-1.37-15.6-2.66-31.22-1.43-17.38-2.77-34.79c-1-13.73-2-27.47-3.06-41.2a25.65,25.65,0,0,0-1-4.15,23.09,23.09,0,0,0-3.66.69c-3.2,1.17-6.4,2.39-9.55,3.72-16.19,6.83-32.39,13.62-48.52,20.56-8,3.43-15.78,7.26-23.73,10.72C311.59,316.37,310.74,318.55,311.5,321.78Zm74.13-90.63a26,26,0,0,0,10.3-4.1,100.51,100.51,0,0,0-.42-14.93c-.72-8.76-1.86-17.5-2.22-26.27-.57-13.4-1.14-11.52-9.69-18.7a8.09,8.09,0,0,0-6.27-2.07c-6.55.62-13.1,1.18-19.64,1.8-4.29.4-8.57.79-12.85,1.32-10.12,1.25-20.2,3-30.35,3.75-11.9.88-8.94,1.12-15.88,8.7a13.38,13.38,0,0,0-1.14,1.77c-2.27,1.55-2.22,3.7-1.9,6.26,2.2,18,4.24,35.95,6.37,53.93.89,7.55,1.87,15.09,2.81,22.63,3,.47,5-1.24,7.29-2.21q31.82-13.66,63.6-27.43C379,234.16,382.3,232.64,385.63,231.15Z"/><path class="f49a53da-527e-4f3e-8cbb-5bdc4455d8dc" d="M707.89,246.72l4.52-5.47c1-.63,1.94-1.23,2.88-1.9,4.47-3.22,7.83-7.12,7.5-13.35-.06-1.17.29-2.36.33-3.54q.79-20.29,1.55-40.59.33-8.9.6-17.81c.17-5.45.3-10.89.45-16.34.2-1.82,1.36-2.93,2.62-4q20.17-17.06,40.32-34.15a7.27,7.27,0,0,1,5.65-1.79c8.16.64,16.32,1.16,24.48,1.85q22.76,1.92,45.5,4c15.39,1.43,30.76,3,46.14,4.48a8.19,8.19,0,0,1,5.94,3q17.48,21,35.07,42a11.68,11.68,0,0,1,.91,1.74c-.52,4.73-1.05,9.93-1.68,15.12q-3.09,25.55-6.24,51.07c-.63,5.2-1.12,10.43-1.86,15.61a8.64,8.64,0,0,0,2,7.21c3.26,4,6.31,8.09,9.44,12.15a8,8,0,0,1-1.17,2.05c-3.85,3.18-8.34,5.57-10.83,10.39-.6,1.16-2.06,1.82-3.55,3.08-3.32,27.52-6.69,55.4-10.07,83.44-1.59,1.32-3.21,2.61-4.78,4-2.24,1.94-5,3.32-6.17,6.45-.3.79-1.27,1.32-2,1.9l-28.18,22.54c-9.59,1.24-19-1.31-28.45-1.85-7.23-.42-14.41-1.58-21.63-2.23-7.67-.69-15.37-1.15-23.05-1.75-11.3-.88-22.58-2-33.89-2.59-3.68-.2-6.42-1.25-8.87-4.18-6-7.16-12.21-14.1-18.34-21.13-4.29-4.92-8.53-9.88-12.91-14.71a8.1,8.1,0,0,1-2.38-6.39c.1-1.42,0-2.86.09-4.28.45-10.7.95-21.4,1.35-32.09.22-6-.23-12,.51-17.86,1.07-8.55.61-17.12,1.13-25.67a9.24,9.24,0,0,0-3-7.57C714.45,254,711.21,250.31,707.89,246.72Zm71.53-75.51c-.89,11.64-1.89,23.26-2.66,34.9-1.17,17.83-2.15,35.67-3.26,53.5-1.26,20.21-2.27,40.44-4,60.61-.59,6.81.84,11.79,5.51,16.45,2.62,2.62,5,4.23,8.75,4.44,10.65.6,21.28,1.61,31.9,2.57,10,.9,19.89,2,29.83,2.9,1.75.17,3.66.76,5-1.13,2.55-2,5.13-3.89,7.66-5.88a8.16,8.16,0,0,0,3-6.16c.9-10.9,1.92-21.79,2.95-32.68.55-5.92,1.18-11.83,1.8-17.74.69-6.62,1.46-13.23,2.11-19.85.63-6.39,1.13-12.79,1.73-19.19.47-5,1-9.94,1.49-14.9.76-7.33,1.57-14.65,2.31-22,.59-5.92.53-12,1.81-17.73,1.56-7,.33-12.21-4.85-17.19-3.43-3.29-6.89-5.18-11.33-5.48-3-.2-5.91-.25-8.85-.55-7-.73-14-1.67-20.95-2.33q-16.26-1.51-32.54-2.72c-2.21-.17-4.88-.44-6.62.63C786.11,164.16,782.05,166.88,779.42,171.21Z"/><path class="be8fe37d-1c90-4a3f-a0b3-f1407e7f32d9" d="M165.41,1000.24c-.08,2.86-.21,5.72-.21,8.58q0,36.48,0,73v7.51c-1.53.28-2.78.6-4,.7-2.26.18-4.53.22-6.8.32-2.49-.08-5-.21-7.48-.22-9.31,0-18.61,0-27.92,0-1.75,0-3.68.49-5.6-1.73v-7.23c0-38.12.06-76.25,0-114.37,0-13.26,1.55-9-7.22-18.56-2.15-2.37-4.9-4.25-6.33-7.75,3.19-3.71,6.13-7.67,9.6-11,3.16-3,4.07-6.38,4.06-10.74-.14-37.88-.07-75.77-.1-113.65,0-2.37-.29-4.74-.45-7.1.18-2.13.36-4.27.56-6.7a9.57,9.57,0,0,1,2.42-.62q23.17,0,46.37,0a16.36,16.36,0,0,1,2.08.28c1.65,2.36.83,5.08.83,7.6q.09,68,.06,136c0,2.56-.28,5.16.47,8,1.55-.42,2.85-.72,4.12-1.14q37.71-12.24,75.42-24.54a31.78,31.78,0,0,0,3.11-1.39,26.51,26.51,0,0,0,4-.67c6.71-2.17,7-.59,7-9.54q-.06-50.1,0-100.19c0-2.36-.33-4.73-.5-7.09.18-2.13.37-4.26.58-6.74,5.54-1.25,11.18-.42,16.77-.57s11.36,0,17.05,0H310c1.8,2.75,1,5.46,1,8q.09,59.43,0,118.85v7.8L325,940.44l-13.89,14.82q0,66.9,0,134.42l-10.82.64c-2.5-.08-5-.21-7.48-.22-9.31,0-18.61,0-27.92,0-1.75,0-3.66.43-5.58-1.74V1008.2c0-6.91.05-13.82,0-20.72-.06-6.63.28-13.27-.25-19.87-1.09-.22-1.82-.62-2.38-.44q-45.46,14.57-91,29.25C165.55,997.94,165.48,999.09,165.41,1000.24Z"/><path class="f49a53da-527e-4f3e-8cbb-5bdc4455d8dc" d="M927.51,1010.18c.19-2.13.37-4.25.58-6.65a10.38,10.38,0,0,1,2.49-.64q23.16-.06,46.32,0a15.15,15.15,0,0,1,2.33.41c1.4,7-.06,14.1.8,21l10.4,11.06c.69,0,1.8.22,2.92.22q31,0,62,0c1.58,0,3.17-.17,4.75-.26a4.07,4.07,0,0,0,4.45-.87c2.6-2.66,5.28-5.25,7.71-8.08,3-3.44,2.28-9.66-1.22-12.68q-18.43-15.82-36.91-31.61c-3.34-2.85-6.78-5.58-10-8.52a7.58,7.58,0,0,0-7-1.87,19.76,19.76,0,0,1-3.33.7c-3.76,0-7.58,1.13-11.67-.42-.18-3.3-.37-6.35-.5-9.41-.26-6.23-1.77-11.7-7.54-14.86a17.4,17.4,0,0,1-2.62-2.28q-17.36-15-34.71-29.9c-8.25-7.09-16.49-14.2-24.83-21.16a10.64,10.64,0,0,1-4-9.16c.2-15.49.15-31,0-46.47,0-3.55.72-6.31,3.26-8.89,8.49-8.61,16.77-17.45,25.09-26.24,1.58-1.68,3-3.56,4.45-5.35l7.94-7.41h115.56l41.31,43.35V876.8c-3.44,2-7.26.11-10.68,1.34-2.49-.06-5-.15-7.47-.16-9.29,0-18.58,0-27.87,0-1.76,0-3.65.4-5.59-1.74,0-3.23,0-7,0-10.8-.17-11.09,1.2-7.54-6.33-16.07-2.91-3.3-6-4.28-10.19-4.24-20.16.19-40.32,0-60.48.1-7.44,0-5.68-1.07-11.71,5.28a15.86,15.86,0,0,0-1.23,1.69l-4,3.58v9.06c17.9,15.46,35.77,30.92,53.3,46.08,6.86.79,13.06-1.91,19.75-.88.58,6.31,1.14,12.44,1.75,19.12L1125.6,990v56.61c-.82,1-1.77,2.33-2.87,3.49-11.56,12.17-23.2,24.26-34.67,36.52-2.23,2.38-4.59,3.7-7.7,3.7-2.95-.08-5.9-.22-8.85-.22q-47.37,0-94.73,0c-1.59,0-3.19-.09-4.77,0a7.18,7.18,0,0,1-6-2.57q-17.76-18.78-35.66-37.43a8.44,8.44,0,0,1-2.41-6.37c.08-8.58.06-17.16,0-25.74C927.89,1015.4,927.65,1012.79,927.51,1010.18Z"/><path class="f49a53da-527e-4f3e-8cbb-5bdc4455d8dc" d="M945.61,339.74c.68-3.48,1.36-6.95,2.12-10.8a7.79,7.79,0,0,1,2.38-.35q22.51,3.5,45,7.12a15.26,15.26,0,0,1,2.61,1c.14,6.63-1.86,12.79-2.36,19.82,2.46,3.58,5.23,7.59,8.12,11.8,7.34,1.37,14.69,2.71,22,4.13q21.36,4.13,42.71,8.32c1.34.26,2.69.4,4,.66,1.77.33,3-.61,4.24-1.75,2.55-1.52,5.17-2.94,7.62-4.61a5,5,0,0,0,1.94-2.77c.71-3.52,1.13-7-1.71-10-3.48-3.76-6.55-7.92-9.85-11.86-9-10.73-18.07-21.4-27-32.19-2.4-2.89-5-4.46-8.82-4.37-4.49.09-8.89-.95-13.65-2.14.17-3.13.28-5.95.49-8.77.14-1.89.43-3.77.63-5.66a7.8,7.8,0,0,0-2.17-6.46c-5.8-6.38-11.38-13-17.21-19.34-13.55-14.77-27.2-29.45-40.8-44.17a9.4,9.4,0,0,0-1-1c-2.65-2.13-3.21-4.95-2.72-8.26,1.25-8.47,2.52-16.93,3.57-25.41.78-6.37,1.23-12.77,1.83-19.16a12.69,12.69,0,0,1,5.17-7.09q20.28-13.79,40.35-27.91a10.94,10.94,0,0,1,9-1.87c21.43,4,42.88,7.86,64.29,11.93,15.84,3,31.61,6.37,47.45,9.37a12,12,0,0,1,8.29,5.4c9.38,13.75,18.95,27.36,28.42,41,.92,1.33,1.69,2.78,2.63,4.33-2.82,13.22-5.64,26.41-8.53,39.91l-8.23-.52a19.35,19.35,0,0,0-3.11-1.3c-10.83-2.46-21.68-4.84-32.52-7.25-2.82-.63-5.76-.87-8.57-2.72.59-3.58.73-7.22,1.84-10.51,2.16-6.39.29-11.31-3.46-16.37a14.59,14.59,0,0,0-10.1-6.2c-6-1-12-2.33-18-3.48-13.79-2.63-27.56-5.46-41.4-7.7-3.43-.55-7-2.92-10.58-.78-3.15,1.88-6.13,4.06-9.18,6.11-.38.25-.9.5-1,.88-.4,1.07-.64,2.21-.94,3.31-.38,1.59-.77,3.18-1.15,4.75l47.86,53.8,18.62,2.12c1.16,3.12.21,6.17.08,9.16s-.58,6.12-.92,9.48c19.89,23.39,39.51,47.1,58.47,71.67-.42,2.12-.83,4.19-1.26,6.25-2.87,13.71-5.78,27.4-8.61,41.11-.75,3.63-2,6.65-5.53,8.32-2,.94-3.7,2.67-5.53,4a8.52,8.52,0,0,0-1.91.7q-16.34,10.89-32.6,21.86c-.35.24-.52.76-.78,1.15a20.42,20.42,0,0,1-4-.05c-13.58-2.68-27.12-5.57-40.71-8.14-20.5-3.86-41-7.55-61.56-11.23a10.23,10.23,0,0,1-7.24-4.64c-5-7.36-10.28-14.52-15.49-21.72q-6.37-8.82-12.85-17.56a8,8,0,0,1-1.71-7.22,91.86,91.86,0,0,0,1.63-11.27C944.74,349.66,945.14,344.69,945.61,339.74Z"/><path class="a38af088-0803-4f76-80b1-a0ecf96fd4bb" d="M635.67,313.92c.19-3.07.39-6.14.6-9.54,5.58-1.33,11.23-.37,16.83-.47,5.45-.1,10.91,0,16.36.24,5.62.21,11.31-.22,16.76,1.1a6,6,0,0,1,.48,1.61c-.33,12.16-.72,24.31-1,36.47a7.58,7.58,0,0,1-2.35,5.64c-12.25,12.09-24.43,24.26-36.65,36.37a13,13,0,0,1-2.27,1.51,48.69,48.69,0,0,0-6.63-.92c-18.85-.07-37.7-.05-56.56,0a34.64,34.64,0,0,0-4.08.08c-13.12,1.65-26.31.53-39.46,1.14a6.9,6.9,0,0,1-5.45-2.36q-10.65-10.53-21.42-20.94c-4.67-4.52-9.41-9-14.14-13.42a7.56,7.56,0,0,1-2.49-5.61c-.41-11.89-1-23.78-1.45-35.67-.53-12.84-1-25.69-1.57-38.53-.09-1.89-.69-3.76-.74-5.65a8,8,0,0,0-3-6.1c-4.16-3.69-8.24-7.47-12.36-11.21l3.33-3.75c3.54-1.59,4.93-5.52,7.78-7.86,2.16-1.76,2.82-4.08,2.7-6.94-.37-8.33-.62-16.65-1.16-25-1.06-16.17-1.27-32.39-1.92-48.59-.12-3.07-.68-6.12-1-9.17a6.13,6.13,0,0,1,.71-1.2q20.25-20.7,40.46-41.29c2.11-.11,3.91-.26,5.72-.28q49.4-.57,98.81-1.11c5.45,0,10.91.11,16.36.09a6.46,6.46,0,0,1,4.94,1.88q20,19.88,40.14,39.7c-.49,13.94-1,27.5-1.45,41.43-1.35.23-2.62.53-3.9.63-2,.15-4.07.16-6.1.23-4.51-.37-9-.93-13.54-1-8.18-.22-16.35-.14-24.53-.27a27.5,27.5,0,0,1-4.29-.68,8.73,8.73,0,0,1-.53-1.8c-.06-3.09-.1-6.19-.09-9.29,0-9.57,0-9.57-6.92-15.71-.52-.46-1.11-.84-1.61-1.33a8.5,8.5,0,0,0-6.86-2.47c-1.36.1-2.73,0-4.09,0-19.06.06-38.12-.34-57.16,1-3.61.25-7.22.39-10.83.58-2.83,2.74-5.67,5.47-8.48,8.22a6.72,6.72,0,0,0-.76,1.17c-1.21,1.39-1,3.09-.92,4.75q1.49,55.76,3,111.51c.34,12.87.69,25.74.76,38.61,0,3.7,1.48,6,3.72,8.66,4.64,5.51,9.91,6.87,16.83,6.57,18.15-.78,36.34-.54,54.5-.73,2.26,0,4.52-.21,6.78-.33,1.7-1.48,3.32-3.11,5.13-4.44,5.05-3.68,6.43-8.71,5.28-14.78C635.76,314.39,635.71,314.15,635.67,313.92Z"/><path class="f49a53da-527e-4f3e-8cbb-5bdc4455d8dc" d="M38.22,176.37c-.29-2.33-.58-4.65-.85-6.75a6.85,6.85,0,0,1,.51-.81,1.27,1.27,0,0,1,.55-.41c53-12,106.2-22.58,159.65-32a21.3,21.3,0,0,1,3.15,0c2,8.25,2.77,16.71,4.05,25.07,1.24,8.19,2.5,16.37,3.81,24.92l-11.38,2.92c-2.89.37-5.8.65-8.67,1.14q-13.64,2.31-27.24,4.77c-2,.35-3.83,1-5.72,1.57a13.32,13.32,0,0,0,.52,8q4.07,24.24,8.14,48.47c1.07,6.31,2.19,12.6,3.26,18.73l15.37,10.66c-3.2,5.83-7.52,10.4-10.85,16.18q10.64,62.36,21.42,125.58l-11.52,2.83c-12.29,1.69-24.3,5.13-36.89,7-.69-2.46-1.4-4.45-1.79-6.51q-10.28-53.5-20.5-107c-.72-3.72-1.6-7.4-2.4-11.09-3.16-2.29-6.3-4.6-9.48-6.86-2-1.42-4.3-2.44-5.78-4.67L116,282.45c-4.71-24.65-9.43-49.32-14.08-73.61-2.49-1.48-4.52-.84-6.47-.41-13.3,3-26.59,6-39.88,9-2.42.55-4.85,1.25-7.57.16a18.24,18.24,0,0,1-1.25-3.1c-1.47-6.72-2.8-13.48-4.3-20.2C41.14,188.32,39.65,182.35,38.22,176.37Z"/><path class="e06a9509-c351-4be9-80d1-523df24ed7ce" d="M791.62,936.08l.13-.52.5-.13c3.17,1.21,4.52-1.57,6.11-3.33,2.27-2.5,5.66-4.26,5.78-8.41,0-.71,0-1.43,0-2.14,0-.95,0-1.91,0-2.86q0-56.78,0-113.54c0-2.38-.15-4.75-.23-7.13.26-2.11.52-4.22.82-6.68a8.05,8.05,0,0,1,2.32-.72q23.53,0,47.06,0a6.63,6.63,0,0,1,1.7.66c.08,2.31.24,4.86.24,7.41q0,59.76,0,119.53c0,8.45-1,6.27,4.77,12.45,2.86,3,5.76,6.06,8.82,9.28-1.73,3.15-4.32,5.1-6.5,7.4s-4.6,4.6-7.05,7v135c-1.61.25-2.86.52-4.13.63-2.26.18-4.53.25-6.8.38-2.49-.1-5-.26-7.48-.26-9.54,0-19.08,0-28.62-.05a33.93,33.93,0,0,1-4.81-.77c0-3-.13-5.58-.13-8.17q0-59,0-118c0-1.67-.09-3.35,0-5a7.15,7.15,0,0,0-2.24-5.72c-2.94-3-5.81-6-8.71-9.07a4.63,4.63,0,0,1-1.41-4.49A10.08,10.08,0,0,0,791.62,936.08Z"/><path class="f9bda68c-1e3e-412d-a0b1-633147043201" d="M509.62,513.94c.75-2.92,1.6-5.63,2.15-8.41,2.67-13.41,9.6-24.06,19.35-32.83,10.21-9.18,22.17-14.85,35-18.42a176.82,176.82,0,0,1,52-6.32c28.63.74,56.32,6.78,83.45,16.12,7.31,2.51,12.54,7.54,16.35,14.32a45.45,45.45,0,0,1,5.75,21.83c.17,11.21.16,22.42.24,33.64,0,4.25.09,8.51.15,13,1.78.72,3.19,1.4,4.67,1.87A155.2,155.2,0,0,1,777,573.12a22,22,0,0,0,6.1,3,129.84,129.84,0,0,1,22.61,9.85,65.36,65.36,0,0,1,16.75,13.38,43,43,0,0,1,9.4,18C835,630,828,642.81,817.92,647.61a29.73,29.73,0,0,1-11.84,3,340.16,340.16,0,0,1-38.84-.92c-9.06-.73-18.13-1.5-27.23-.61-26,2.52-51.15,8.35-75,19.5-38.84,18.14-78.78,33.13-119.37,46.29a488.78,488.78,0,0,1-48.7,13.53,244.47,244.47,0,0,1-33.06,4.67c-19.77,1.47-36-6.3-49.27-21.24a89.58,89.58,0,0,1-21.21-44.93c-5.33-30.93-.31-60.21,14-87.82a101.22,101.22,0,0,1,21.34-27.66c21.16-19.64,45.66-31.74,73.66-35.94,2-.3,4-.67,6.05-1A9.92,9.92,0,0,0,509.62,513.94ZM489,723.62a51.88,51.88,0,0,0,6.74-.78c15.47-3.81,31.07-7.16,46.31-11.79,14.81-4.5,29.41-9.9,43.81-15.71,27.34-11,54.47-22.65,81.7-34,27.08-11.27,55.07-18.08,84.31-17.79,15.68.15,31.36,1.14,47,2a37.23,37.23,0,0,0,11.5-.93c7.88-2,13.3-8.78,14.16-17.28.78-7.76-1-14.8-5.91-20.63a49.7,49.7,0,0,0-9.57-9.06,89.86,89.86,0,0,0-44-15.87c-11.15-1-22.24,0-33.34,1.31a301.64,301.64,0,0,0-38.27,6.72c-8.44,2.12-16.37,5.63-24.46,8.79a216.28,216.28,0,0,0-38.51,19.73,333.15,333.15,0,0,0-49.37,39.31A158.62,158.62,0,0,1,567,670c-16.32,12.13-32.85,23.94-49.26,35.94-10.15,7.43-21,13.21-33.05,16.5-5.53.46-11.06,1-16.6,1.33-2.66.17-5.34,0-8,0l-15.05-4.49,3.09-1.67,3.73.58c1.26,1.44,2.82,1.29,4.41.88,2.95.1,5.91.09,8.86.33a45,45,0,0,0,22.61-4c7.07-3.22,14.15-6.51,20.91-10.36,19.42-11.07,37.24-24.67,54.73-38.78a117.85,117.85,0,0,0,14.08-13.47,13.77,13.77,0,0,0,1.36-2.64c-2.84-.28-5.06-.61-7.3-.71a216,216,0,0,1-35.8-4.69c-11.82-2.54-23.4-5.95-33.73-12.85a7.6,7.6,0,0,0-5.14-1.4c-5,.48-9.93,1-14.89,1.5l-3.23-.17c3.92-3.53,8.76-4.65,13.62-5.74,1.51-.33,3-.71,4.7-1.12,3.1-28.55,6.19-56.85,9.22-85.16a56.31,56.31,0,0,0,0-5.83,16.2,16.2,0,0,0-2.58-.64c-9.82-.77-19.5.09-28.79,3.61-5.3,2-10.37,4.7-15.55,7.08l-1.85-1.8c15.06-10.54,31.94-14.21,50.08-14.06.22-2.44.4-4.46.61-6.82a32.25,32.25,0,0,0-3.74,0Q463,526.79,432.56,557a93.15,93.15,0,0,0-15.92,21.29,136.81,136.81,0,0,0-17.17,57.4,102.61,102.61,0,0,0,17.73,66,62.16,62.16,0,0,0,20.61,19.41c4.84,2.8,9.93,4.81,15.45,5.09,5,.26,10,0,14.95,0A68.12,68.12,0,0,0,489,723.62Zm229.18-147c.12-1.48.32-2.86.32-4.23q-.06-21.82-.18-43.64c0-8.11-.05-16.22-.12-24.33a48,48,0,0,0-4.45-20c-3.33-7.12-8.27-12.46-15.67-15-1.94-.65-3.83-1.5-5.73-2.27a191.31,191.31,0,0,0-70.54-14.07c-8.62-.08-17.26.51-25.85,1.27a147.15,147.15,0,0,0-39.17,8.85,75.25,75.25,0,0,0-26.26,16.18A49.47,49.47,0,0,0,516,506.21c-3.18,16.62-5,33.44-6.7,50.26-1.32,12.79-2.46,25.61-3.61,38.43-.51,5.7-.87,11.41-1.25,17.11,0,.43.3.88.61,1.72.75.34,1.75.85,2.78,1.25a233.12,233.12,0,0,0,34.63,10.47,199.14,199.14,0,0,0,52.8,5c3.51-.16,6.74-.74,9.52-3.15a33.27,33.27,0,0,1,2.83-2,307.5,307.5,0,0,1,92.58-44.16C706,579.46,712,578.14,718.2,576.6Zm48.28-2.91a201.46,201.46,0,0,0-34.3-17.2c-2.43-1-4.87-2.51-8-1.82-.74,3.84-.41,7.62-.42,11.35s-.67,7.42.44,10.7Z"/><path class="b8539b69-a95a-422c-ba6a-2c2e201e79e2" d="M349.3,798c.1,2.38.29,4.75.29,7.13q0,56.88,0,113.77c0,1.19-.07,2.39,0,3.57a7.11,7.11,0,0,1-2.28,5.71q-3.68,3.75-7.18,7.64c-1.23,1.36-2.32,2.86-3.34,4.14.54,3.24,2.86,4.62,4.5,6.52,2.58,3,5.24,5.92,7.87,8.87.14,4,.4,8.07.41,12.1q0,56.88,0,113.77c0,2.59.08,5.18.13,8.1a33.93,33.93,0,0,0,4.17.77c2,.13,4.09,0,6.13,0q84.2,0,168.39,0c2.73,0,5.45.15,8.17.24v6.54a16.68,16.68,0,0,1-2.9.54q-97.07,0-194.12,0c-1.41-2.88-.8-5.55-.81-8.08q-.06-59.37,0-118.75v-7.75l-13.61-14.48c.37-2.25,2.13-3.17,3.25-4.54s2.24-2.37,3.31-3.6c2.29-2.62,5.33-4.92,6.59-8,1.15-2.85.45-6.56.45-9.88q0-57.95,0-115.89c0-2.58.12-5.16.19-8C342.58,797.58,346,798.13,349.3,798Z"/><path class="a6f84944-a761-49dc-bbbc-d7bdccee3c05" d="M38.22,176.37c1.43,6,2.92,11.95,4.26,17.95,1.5,6.72,2.83,13.48,4.3,20.2a18.24,18.24,0,0,0,1.25,3.1c2.72,1.09,5.15.39,7.57-.16,13.29-3,26.58-6.05,39.88-9,2-.43,4-1.07,6.47.41,4.65,24.29,9.37,49,14.08,73.61l-10.45,15.61c1.48,2.23,3.78,3.25,5.78,4.67,3.18,2.26,6.32,4.57,9.48,6.86.8,3.69,1.68,7.37,2.4,11.09q10.26,53.52,20.5,107c.39,2.06,1.1,4.05,1.79,6.51,12.59-1.84,24.6-5.28,36.89-7,.31,2.35.62,4.68.92,6.92-4,1.75-42.92,9.68-48.57,9.89-3.05-13.78-5.46-27.8-8.15-41.75-2.66-13.77-5.24-27.56-7.9-41.34-2.7-14-5.46-28-8.16-41.82L95.19,309c2.65-6.16,7.2-10.68,10.29-16.68L91.35,218.61c-2.39-1.24-4.35-.36-6.29.07q-22.31,4.94-44.62,9.94c-.84.19-1.7.28-3,.5-3.84-16.61-7.24-33-10.63-49.66C30.66,177.49,34.53,177.27,38.22,176.37Z"/><path class="bd3ac4eb-103f-4cea-8fac-d01621da1591" d="M570.38,798c.1,2.61.28,5.23.28,7.85q0,56.21,0,112.41a35.61,35.61,0,0,0,0,3.58c.28,2.88-.9,5-2.82,6.92-3.61,3.62-7.07,7.39-10.89,11.41,1.1,1.43,2,2.74,3,3.86,2.86,3.07,5.78,6.08,8.71,9.08a6.56,6.56,0,0,1,2,5.11c-.07,1.91,0,3.82,0,5.73q0,58.71,0,117.42c0,2.58.13,5.16.19,7.4,2.19,2,4.33,1.32,6.29,1.34,11.6.11,23.19.14,34.79.19,0,2.12,0,4.23,0,5.69-.6.84-.7,1.07-.88,1.19a1.22,1.22,0,0,1-.65.18q-22.81.09-45.63.15c-1.34,0-2.69-.15-4.06-.23-1.63-2.49-.85-5.2-.85-7.72q-.09-59.32,0-118.67v-8.08L545.67,948.1c2.14-3.25,4.79-5.48,7.13-8s4.58-4.59,7-7V843.65c0-7.62,0-15.25,0-22.87,0-7.35-.12-14.69.12-22.29C563.67,797.53,567.05,798.13,570.38,798Z"/><path class="bafc9a30-9e0b-40fc-b447-cbf7bfef7a00" d="M112.88,797.92c.16,2.36.45,4.73.45,7.1,0,37.88,0,75.77.1,113.65,0,4.36-.9,7.7-4.06,10.74-3.47,3.34-6.41,7.3-9.6,11,1.43,3.5,4.18,5.38,6.33,7.75,8.77,9.6,7.19,5.3,7.22,18.56.09,38.12,0,76.25,0,114.37v7.23c1.92,2.22,3.85,1.73,5.6,1.73,9.31,0,18.61,0,27.92,0,2.5,0,5,.14,7.48.22v6.27c-5.15,1.07-42.75,1.3-51.26.37a3,3,0,0,1-.4-.49,2,2,0,0,1-.21-.64,3.37,3.37,0,0,1-.09-.71V963.54c-4.17-5.78-9.77-10-14-15.84,3.9-4.23,7.42-8.28,11.19-12.05a9.66,9.66,0,0,0,2.86-7.59c-.12-13.83,0-27.66,0-41.49q0-40.41,0-80.83c0-2.34.14-4.69.22-7.42C106.18,797.66,109.55,798.13,112.88,797.92Z"/><path class="a6f84944-a761-49dc-bbbc-d7bdccee3c05" d="M960.68,798.2c-1.48,1.79-2.87,3.67-4.45,5.35-8.32,8.79-16.6,17.63-25.09,26.24-2.54,2.58-3.29,5.34-3.26,8.89.12,15.49.17,31,0,46.47a10.64,10.64,0,0,0,4,9.16c8.34,7,16.58,14.07,24.83,21.16q17.37,14.92,34.71,29.9a17.4,17.4,0,0,0,2.62,2.28c5.77,3.16,7.28,8.63,7.54,14.86.13,3.06.32,6.11.5,9.41,4.09,1.55,7.91.47,11.67.42a19.76,19.76,0,0,0,3.33-.7,7.58,7.58,0,0,1,7,1.87c3.27,2.94,6.71,5.67,10,8.52q18.47,15.79,36.91,31.61c3.5,3,4.17,9.24,1.22,12.68-2.43,2.83-5.11,5.42-7.71,8.08a4.07,4.07,0,0,1-4.45.87c2.9-4.16,2.9-4.16,2.53-11.71-.72-.7-1.65-1.7-2.68-2.58-14.94-12.82-30-25.56-44.8-38.5-3-2.64-6-3.77-9.89-3.08a85.42,85.42,0,0,1-10.87.75,18.77,18.77,0,0,1-2.85-.33c-.68-6.57-1.33-12.91-2-19.39l-72-61.9c-.72-6.07-.93-45.51-.33-57.89,1-1.12,2.2-2.52,3.47-3.85q17.1-18,34.21-35.89C956.49,799.2,958,797.28,960.68,798.2Z"/><path class="b8539b69-a95a-422c-ba6a-2c2e201e79e2" d="M967.65,173.45c-.6,6.39-1,12.79-1.83,19.16-1.05,8.48-2.32,16.94-3.57,25.41-.49,3.31.07,6.13,2.72,8.26a9.4,9.4,0,0,1,1,1c13.6,14.72,27.25,29.4,40.8,44.17,5.83,6.36,11.41,13,17.21,19.34a7.8,7.8,0,0,1,2.17,6.46c-.2,1.89-.49,3.77-.63,5.66-.21,2.82-.32,5.64-.49,8.77,4.76,1.19,9.16,2.23,13.65,2.14,3.78-.09,6.42,1.48,8.82,4.37,8.94,10.79,18,21.46,27,32.19,3.3,3.94,6.37,8.1,9.85,11.86,2.84,3.08,2.42,6.51,1.71,10a5,5,0,0,1-1.94,2.77c-2.45,1.67-5.07,3.09-7.62,4.61a7.55,7.55,0,0,0-1.9-6.47c-7-8.39-13.94-16.94-21-25.35-5.68-6.81-11.56-13.44-17.19-20.29a9.16,9.16,0,0,0-7.05-3.55c-4.73-.28-9.44-1-14.4-1.51-.61-6.46,1-12.57.32-19.28-20.42-23.63-41.89-46.85-64-70.09,2.34-17.47,4.69-35.11,7.1-53.13A38,38,0,0,1,967.65,173.45Z"/><path class="a6f84944-a761-49dc-bbbc-d7bdccee3c05" d="M238.87,169.07c.59,5.67,1,11.36,1.79,17q3.27,24.72,6.75,49.41c.66,4.7,1.49,9.38,2.2,14.07.21,1.41.21,2.86.41,4.27a9,9,0,0,1-2.18,7.2c-3.06,3.81-5.86,7.83-8.72,11.69,1.82,3.55,4.84,4.91,7.38,6.82,7.7,5.83,8.14,4.54,9.25,15.09,1.72,16.53,4.34,33,6.66,49.42,1.56,11.05,3.33,22.07,4.88,33.12,1.16,8.24,2.09,16.5,3.2,24.74.38,2.82,1,5.6,1.58,8.76a16.13,16.13,0,0,0,3.9.43c6.74-.89,13.46-2,20.19-2.9,4.5-.61,9-1,13.52-1.53.21,2.57,1,5.13.11,8.18l-48.13,6.79c-2.51-14.16-4-28.07-6.06-41.9s-3.8-27.84-5.72-41.76S246,310.16,244,295.73L228.1,283.65l12-16.45c-3.9-28.35-7.82-56.86-11.79-85.71C231.64,177.32,234.23,172.27,238.87,169.07Z"/><path class="a6f84944-a761-49dc-bbbc-d7bdccee3c05" d="M475.06,247.62c4.12,3.74,8.2,7.52,12.36,11.21a8,8,0,0,1,3,6.1c.05,1.89.65,3.76.74,5.65.56,12.84,1,25.69,1.57,38.53.49,11.89,1,23.78,1.45,35.67a7.56,7.56,0,0,0,2.49,5.61c4.73,4.46,9.47,8.9,14.14,13.42q10.76,10.41,21.42,20.94a6.9,6.9,0,0,0,5.45,2.36c13.15-.61,26.34.51,39.46-1.14a34.64,34.64,0,0,1,4.08-.08c18.86,0,37.71,0,56.56,0a48.69,48.69,0,0,1,6.63.92c-2.95,3.26-5.91,6.51-8.68,9.55-5.24,0-10,0-14.76,0q-44,.36-87.9.76a35.9,35.9,0,0,0-4.76.13c-3,.41-5.08-1-7.21-3-11.13-10.89-22.32-21.72-33.66-32.37a11.41,11.41,0,0,1-3.84-8.64c-.46-13.58-1.12-27.15-1.72-40.73-.59-13.33-1.21-26.66-1.84-40.38-4.26-4.93-9.81-8.75-14.68-13.78.91-2.63,3.06-4.1,4.72-5.93S473.39,249.22,475.06,247.62Z"/><path class="a6f84944-a761-49dc-bbbc-d7bdccee3c05" d="M707.89,246.72c3.32,3.59,6.56,7.27,10,10.74a9.24,9.24,0,0,1,3,7.57c-.52,8.55-.06,17.12-1.13,25.67-.74,5.88-.29,11.9-.51,17.86-.4,10.69-.9,21.39-1.35,32.09-.06,1.42,0,2.86-.09,4.28a8.1,8.1,0,0,0,2.38,6.39c4.38,4.83,8.62,9.79,12.91,14.71,6.13,7,12.35,14,18.34,21.13,2.45,2.93,5.19,4,8.87,4.18,11.31.62,22.59,1.71,33.89,2.59,7.68.6,15.38,1.06,23.05,1.75,7.22.65,14.4,1.81,21.63,2.23,9.49.54,18.86,3.09,28.45,1.85a2.61,2.61,0,0,1-.41.56q-6.17,5.06-12.33,10.08c-5.19-.43-10.38-.82-15.56-1.32-11.53-1.11-23.05-2.37-34.6-3.4-15.39-1.37-30.79-2.59-46.19-3.83-4.53-.36-9.06-.57-14-.88l-3.48-4c-10.11-11.63-20.16-23.31-30.38-34.83a11.25,11.25,0,0,1-3.29-8.84c.84-14.76,1.37-29.54,2-44.3.51-11.44,1-22.87,1.59-34.3a7.21,7.21,0,0,0-2.12-5.74c-3.67-3.86-7.26-7.82-11.08-11.94,1.25-2.62,3.51-3.91,5.27-5.65S706.16,248.26,707.89,246.72Z"/><path class="b8539b69-a95a-422c-ba6a-2c2e201e79e2" d="M945.61,339.74c-.47,4.95-.87,9.92-1.41,14.86a91.86,91.86,0,0,1-1.63,11.27,8,8,0,0,0,1.71,7.22q6.47,8.75,12.85,17.56c5.21,7.2,10.5,14.36,15.49,21.72a10.23,10.23,0,0,0,7.24,4.64c20.53,3.68,41.06,7.37,61.56,11.23,13.59,2.57,27.13,5.46,40.71,8.14a21.23,21.23,0,0,0,4,.06c.07.67.13,1.33.2,2-3.37,2.41-6.76,4.78-10.09,7.25a5.87,5.87,0,0,1-5.14.83c-18.94-3.88-37.87-7.79-56.84-11.45q-22.11-4.24-44.31-7.86a10.75,10.75,0,0,1-7.87-4.7c-9.16-13.06-18.52-26-27.89-38.85-1.59-2.19-2.56-4.28-2.15-7.18,1.72-12,3.27-24.06,4.92-36.09,0-.42.44-.8.92-1.61Z"/><path class="b8a2249b-5d82-4c1d-bd95-0d9630298e18" d="M311.5,321.78c-.76-3.23.09-5.41,3.23-6.77,7.95-3.46,15.76-7.29,23.73-10.72,16.13-6.94,32.33-13.73,48.52-20.56,3.15-1.33,6.35-2.55,9.55-3.72a23.09,23.09,0,0,1,3.66-.69,25.65,25.65,0,0,1,1,4.15c1.06,13.73,2,27.47,3.06,41.2q1.32,17.4,2.77,34.79,1.28,15.62,2.66,31.22c.08.92.33,1.82.59,3.13a21.38,21.38,0,0,0,3.93.48c5-.33,9.93-.8,14.89-1.21,1.35-.11,2.71-.16,4.07-.25l15.55-1c.13,2.84.26,5.66.41,8.91-8.35,1.34-16.45,1.64-24.52,2.2s-16.22,1.33-24.78,2.05c-2.12-19.62-3.25-38.85-4.92-58s-3-38.31-4.74-57.37c-3.11-.74-5.27.92-7.5,1.86Q349,305.74,315.29,320.21C314,320.75,312.76,321.25,311.5,321.78Z"/><path class="a657bde6-5504-4a08-b77a-f17279dcfad6" d="M791.62,936.08a10.08,10.08,0,0,1,.2,2.76,4.63,4.63,0,0,0,1.41,4.49c2.9,3,5.77,6.09,8.71,9.07a7.15,7.15,0,0,1,2.24,5.72c-.1,1.66,0,3.34,0,5q0,59,0,118c0,2.59.08,5.18.13,8.17a33.93,33.93,0,0,0,4.81.77c9.54.06,19.08,0,28.62.05,2.49,0,5,.16,7.48.26v6.31c-5.15.92-42.42,1.13-50.8.33-1.4-2.31-.72-5-.73-7.51q-.07-59.37,0-118.72c0-1.67-.09-3.34,0-5a7.73,7.73,0,0,0-2.54-6.29c-3.59-3.61-7-7.41-10.82-11.45,1.28-2.55,3.47-4.26,5.32-6.21S789.62,938,791.62,936.08Z"/><path class="bafc9a30-9e0b-40fc-b447-cbf7bfef7a00" d="M165.41,1000.24c.07-1.15.14-2.3.23-3.82q45.63-14.68,91-29.25c.56-.18,1.29.22,2.38.44.53,6.6.19,13.24.25,19.87.06,6.9,0,13.81,0,20.72v80.13c1.92,2.17,3.83,1.73,5.58,1.74,9.31,0,18.61,0,27.92,0,2.49,0,5,.14,7.48.22,0,2.11,0,4.22,0,6.25-5.2,1.11-42.45,1.34-51.2.4a2.53,2.53,0,0,1-.49-.49,1.55,1.55,0,0,1-.2-.64,11.33,11.33,0,0,1-.11-1.43q0-2.15,0-4.29,0-56.52,0-113a11.33,11.33,0,0,0-.12-1.42,10.82,10.82,0,0,0-.26-1.13,23.05,23.05,0,0,0-3.66.59q-37.44,12-74.85,24C168.05,999.58,166.72,999.88,165.41,1000.24Z"/><path class="b8539b69-a95a-422c-ba6a-2c2e201e79e2" d="M927.51,1010.18c.14,2.61.38,5.22.4,7.83.05,8.58.07,17.16,0,25.74a8.44,8.44,0,0,0,2.41,6.37q17.9,18.64,35.66,37.43a7.18,7.18,0,0,0,6,2.57c1.58-.11,3.18,0,4.77,0q47.37,0,94.73,0c3,0,5.9.14,8.85.22l-5.93,6.88h-116L917.31,1054c-.6-5.49-.51-37.47.3-43.38C920.8,1009.8,924.19,1010.43,927.51,1010.18Z"/><path class="b8539b69-a95a-422c-ba6a-2c2e201e79e2" d="M1019.38,202c.3-1.1.54-2.24.94-3.31.14-.38.66-.63,1-.88,3.05-2.05,6-4.23,9.18-6.11,3.58-2.14,7.15.23,10.58.78,13.84,2.24,27.61,5.07,41.4,7.7,6,1.15,12,2.53,18,3.48a14.59,14.59,0,0,1,10.1,6.2c3.75,5.06,5.62,10,3.46,16.37-1.11,3.29-1.25,6.93-1.84,10.51,2.81,1.85,5.75,2.09,8.57,2.72,10.84,2.41,21.69,4.79,32.52,7.25a19.35,19.35,0,0,1,3.11,1.3,41.82,41.82,0,0,1-2.72,11.22l-52.11-11.64c1.21-6.69,2.34-12.92,3.58-19.73a142.27,142.27,0,0,0-8.7-12.57c-9.11-1.88-18.4-3.93-27.74-5.71-14.48-2.74-29-5.27-43.47-8C1023.23,201.23,1021.29,200.78,1019.38,202Z"/><path class="b89066b0-1780-4cfe-b154-252471f7f33a" d="M900.44,767.37a9.62,9.62,0,0,1,5.17-5.26c4-1.65,7.86-3.62,11.8-5.39a15.37,15.37,0,0,1,2.77-.68c3.11,6,5.36,12.14,8,18.4-6.37,17.15-12.76,34.37-19.1,51.48l-10.8,6.23L891.06,834c-3.74-5.79-5.33-12.24-8.08-18,3.77-10.18,7.49-20.06,11.08-30C896.29,779.84,898.32,773.59,900.44,767.37Z"/><path class="a2170633-cae7-41c2-837b-ffdd0fca159a" d="M879.11,622.65a132.18,132.18,0,0,0-.14,13.77,3.9,3.9,0,0,0,.88,1.82c2,3,2,3,1.44,7.78a96.68,96.68,0,0,1-14.38.11c-.15-3.33-1.27-6.24,2.05-8.4.63-.41.6-2.18.61-3.33.06-5.72,0-11.44,0-17.16,0-1.93-.14-3.52-2-4.84-1.31-.94-1-1.38-.43-6.76a6.57,6.57,0,0,1,1.85-.6c6.11,0,12.23,0,18.45,0,2.92,6,3.14,12.6,5.87,18.93a15.37,15.37,0,0,0,1.73-3.15c1.33-5,2.52-10.07,3.83-15.4,7-.89,13.74-.23,20.38-.46,1.83,5.9,1.77,6.18-2,9.33,0,6,0,12.2,0,18.39,0,2.52-.44,4.93,2.43,6.73,1.71,1.07.53,3.92.59,6.27-3,1.14-6,.53-8.83.63-2.69.09-5.39,0-8.39,0-.68-3.4-1.64-6.27,1.79-8.32a2.53,2.53,0,0,0,.85-1.81,96.66,96.66,0,0,0-.19-12.45c-1.2,1.44-1.91,1.93-2.09,2.58-1.4,5-2.67,10.09-4,15.13-.43,1.56-1,3.06-1.6,4.63H886.39c-1.1-3.9-2.13-7.74-3.29-11.54C882,631,881.72,627.18,879.11,622.65Z"/><path class="b8a2249b-5d82-4c1d-bd95-0d9630298e18" d="M540.75,164.8a6.72,6.72,0,0,1,.76-1.17c2.81-2.75,5.65-5.48,8.48-8.22,3.61-.19,7.22-.33,10.83-.58,19-1.35,38.1-1,57.16-1,1.36,0,2.73.09,4.09,0a8.5,8.5,0,0,1,6.86,2.47c.5.49,1.09.87,1.61,1.33,7,6.14,7,6.14,6.92,15.71,0,3.1,0,6.2.09,9.29a8.73,8.73,0,0,0,.53,1.8,27.5,27.5,0,0,0,4.29.68c8.18.13,16.35,0,24.53.27,4.52.12,9,.68,13.54,1-.14,3.07-.29,6.14-.46,9.67-9.06.7-17.8-.24-26.55-.44-8.59-.19-17.18-.35-25.83-.53-1.38-3.54-.54-6.9-.68-10.16s.71-7.07-.5-9.85c-1.33-3-4.62-5.07-6.87-7.71-2-2.35-4.39-3-7.29-3-16.12.14-32.24.16-48.36.24C556.18,164.67,548.47,164.74,540.75,164.8Z"/><path class="bafc9a30-9e0b-40fc-b447-cbf7bfef7a00" d="M622.88,1007.32c-.22-1.26-.07-2.49,1.15-3q8.15-3.59,16.37-7a3.7,3.7,0,0,1,4.33,1.17c1.13,1.18,2.28,2.33,3.4,3.51q38.25,40.23,76.49,80.49c1.75,1.84,3.19,4,4.77,6l-8.46,8.65c-5.44-4.52-10-10.16-14.95-15.27s-10-10.41-14.92-15.64-9.91-10.46-14.86-15.69q-7.19-7.59-14.38-15.18-7.44-7.83-14.9-15.65l-15-15.76Z"/><path class="a657bde6-5504-4a08-b77a-f17279dcfad6" d="M803.93,798c.08,2.38.22,4.75.23,7.13q0,56.77,0,113.54c0,.95,0,1.91,0,2.86,0,.71,0,1.43,0,2.14-.12,4.15-3.51,5.91-5.78,8.41-1.59,1.76-2.94,4.54-6.11,3.33,1.78-2.77,1.39-5.91,1.39-9q0-59.87,0-119.71V798.6C797.29,797.53,800.64,798.14,803.93,798Z"/><path class="e210f5e6-20ab-406d-bac7-93ef8dce37f2" d="M959.84,612.14v-5.91c.52-.46.84-1,1.19-1,6.77-.47,13.53-.26,20-.19,1.66,2.46,1.3,4.61.82,6.65-.19.81-1.11,1.43-1.82,2.29.56.92,1.11,2,1.79,2.9s1.45,1.72,2.53,3c1-1.14,1.72-1.92,2.35-2.78s1.27-1.95,2.05-3.15l-3.33-1.6a33.33,33.33,0,0,1-.31-3.34c0-1.15.2-2.3.35-3.85,3.17-.06,6.07-.13,9-.16,2.73,0,5.45,0,8.07,0,1.88,2.26,1.24,4.62.92,7.29-6.84.64-8.7,7.15-12.38,11.58,4.78,9,8.17,13.25,12.68,15.79.06,1,.19,2.17.16,3.33a18.17,18.17,0,0,1-.32,2.38c-1.37,1.27-11.24,1.45-21.5.63a8.17,8.17,0,0,1,1.05-8.76l-3.2-5c-.74.22-1.33.21-1.57.5-1.16,1.42-2.24,2.92-3.62,4.75l3.59,2c.07,1.82.16,3.9.25,5.78-2,1.56-11.36,1.67-18.42.41a10.72,10.72,0,0,1-.41-1.92c-.07-1.41,0-2.83,0-4.64,4.18.39,6.47-2,8.4-5.17,1.34-2.17,2.9-4.19,4.55-6.56-3.23-4.65-6.23-9.11-9.41-13.41C962.61,613.05,961.26,612.83,959.84,612.14Z"/><path class="bd3ac4eb-103f-4cea-8fac-d01621da1591" d="M401.72,852.57V846a17.52,17.52,0,0,1,3.44-.72q43.3-.06,86.6,0a27.1,27.1,0,0,1,3,.39,23,23,0,0,1,.74,4c.08,6.68.05,13.36.05,20v7.46a33.8,33.8,0,0,0,4.89.8c9.55.07,19.1,0,28.64,0,2.5,0,5,.11,7.5.17v6.26c-5.48,1-44.48,1.07-51.55.15-.89-3.33-.31-6.88-.41-10.36-.1-3.32,0-6.66,0-10v-11a25.17,25.17,0,0,0-4.05-.7Q441.14,852.51,401.72,852.57Z"/><path class="a2170633-cae7-41c2-837b-ffdd0fca159a" d="M266.24,620.39c.82-2,1.56-4,2.46-5.88,4.5-9.6,15.68-13.14,23.6-7.45a9.71,9.71,0,0,0,1.46.65c2.38-3.79,5.87-2.89,9.55-2.36.82,5.59.41,11,.36,16.52-3.3,1.12-6.21.43-9.17.65a36.89,36.89,0,0,0-2.29-4.5c-2.5-3.56-6.44-3.79-9.37-.69-3.87,4.09-4,12.95-.34,17.13a6.67,6.67,0,0,0,8.71,1c1.22-.8,1.52-2.92.25-3.42-3.27-1.29-1.87-3.75-2-6.36a22,22,0,0,1,3.93-.62c5.2.11,10.41.39,15.61.53.31,0,.64-.63,1-1l.1,4.19c-2.4,1.33-4.16,3.7-4.21,6-.07,3.53,0,7.06,0,10.45-6.85,1.77-9.47,1.52-13.25-1.26-.65.28-1.46.61-2.26,1-8.68,4-17.53.84-21.9-7.89-.83-1.68-1.45-3.47-2.17-5.21C266.25,628,266.25,624.21,266.24,620.39Z"/><path class="a6f84944-a761-49dc-bbbc-d7bdccee3c05" d="M983.94,852.18a15.86,15.86,0,0,1,1.23-1.69c6-6.35,4.27-5.25,11.71-5.28,20.16-.05,40.32.09,60.48-.1,4.15,0,7.28.94,10.19,4.24,7.53,8.53,6.16,5,6.33,16.07,0,3.78,0,7.57,0,10.8,1.94,2.14,3.83,1.73,5.59,1.74,9.29,0,18.58,0,27.87,0,2.49,0,5,.1,7.47.16q-.11,3.15-.19,6.3a9.37,9.37,0,0,1-2.21.67q-23.54.06-47.06,0a9.49,9.49,0,0,1-2.24-.66c-.08-2.34-.2-4.67-.23-7,0-3.34-.11-6.68,0-10a7.86,7.86,0,0,0-2.37-6.36c-2.64-2.62-5.09-5.45-7.76-8.35-2.06-.08-4.08-.22-6.1-.23q-27.62,0-55.25,0C988.93,852.47,986.44,852.28,983.94,852.18Z"/><path class="bafc9a30-9e0b-40fc-b447-cbf7bfef7a00" d="M258.79,797.9c.17,2.36.5,4.73.5,7.09q0,50.1,0,100.19c0,9-.3,7.37-7,9.54a26.51,26.51,0,0,1-4,.67c-.7-46.83-.41-109.69.6-117.21Z"/><path class="bd3ac4eb-103f-4cea-8fac-d01621da1591" d="M310.05,628.79l-.1-4.19c.22-12.88,8.11-21,20.1-20.59a28.78,28.78,0,0,1,5.4.66,16.3,16.3,0,0,1,12.36,11,29.18,29.18,0,0,1,.17,19.56,16.46,16.46,0,0,1-10.85,10.93,22.61,22.61,0,0,1-12.73.61C315.33,644.58,310.8,638.94,310.05,628.79Zm25.53-2.24c-.61-4.44-.49-8.09-2.59-11.16s-5.4-2.86-7.3.16c-3,4.7-3,15.12,0,19.8,2.25,3.54,6.39,3.29,8-.75A51.54,51.54,0,0,0,335.58,626.55Z"/><path class="e210f5e6-20ab-406d-bac7-93ef8dce37f2" d="M264.23,631.9c-3.1,10-10.17,14.11-19.69,14.35-5.86.15-11.72.1-17.9,0-.24-3.63-1.69-7,2.72-8.93V614c-3.21-2.24-3.21-2.24-2.52-8.69,1.17-.13,2.43-.36,3.7-.38,4.09-.05,8.18-.15,12.26,0a39.13,39.13,0,0,1,8.06,1.12,18.06,18.06,0,0,1,12.25,10.44c.59,1.27,1.09,2.58,1.63,3.88Zm-22.52,5.88c3.94.72,6.56-.5,8-3.56a19.08,19.08,0,0,0,.07-17.17c-1.57-3.22-4.32-4.59-8.08-3.45Z"/><path class="e6e48c04-1d0e-40da-aa94-fa53ba4715ce" d="M1078.15,638.94c-7,0-14.06,0-21.09,0a24.22,24.22,0,0,1-4.75-.21,8.86,8.86,0,0,1-6.91-8.57,8.58,8.58,0,0,1,6.5-8.83,20.74,20.74,0,0,1,4.72-.43q21.44,0,42.87,0a20.63,20.63,0,0,1,4.72.41,8.65,8.65,0,0,1,6.63,8.76,8.94,8.94,0,0,1-6.85,8.64,23.37,23.37,0,0,1-4.74.23C1092.22,639,1085.19,638.94,1078.15,638.94Z"/><path class="e6e48c04-1d0e-40da-aa94-fa53ba4715ce" d="M152.29,638.94c-7,0-14.06,0-21.1,0a20.69,20.69,0,0,1-4.73-.3c-3.95-1-6.47-4.66-6.39-9a8.28,8.28,0,0,1,6.22-8.29,18.52,18.52,0,0,1,4.71-.48q21.76-.06,43.54,0a18.83,18.83,0,0,1,4.05.33,9,9,0,0,1,6.91,8.59,9.09,9.09,0,0,1-7.37,9,30.06,30.06,0,0,1-4.75.17Z"/><path class="e210f5e6-20ab-406d-bac7-93ef8dce37f2" d="M926.52,637.21V614.08L923.24,612v-6.47c5.59-1.13,11-.45,16.41-.56s10.89,0,16.53,0c1.68,4.32.41,8.49.88,12.79a22.77,22.77,0,0,1-9.32.13c-.36-1.52-.69-2.85-1.08-4.48h-7.49c-1.06,2.22-.63,4.45-.4,7.13l9.2.48c1.71,2.27.92,4.8.77,7.79l-9.77.42a18.48,18.48,0,0,0,.14,8.84c1.47.13,2.78.32,4.1.33a32.62,32.62,0,0,0,3.4-.28c.35-1.69.64-3,.95-4.54,2.83-1,5.75-.49,9.09-.39a46,46,0,0,1,0,12.89H923.43c-.19-2.2-.37-4.22-.56-6.33Z"/><path class="b8a2249b-5d82-4c1d-bd95-0d9630298e18" d="M484.75,146.33c.36,3,.92,6.1,1,9.17.65,16.2.86,32.42,1.92,48.59.54,8.33.79,16.65,1.16,25,.12,2.86-.54,5.18-2.7,6.94-2.85,2.34-4.24,6.27-7.78,7.86,0-2.13.1-4.26,0-6.39q-1.68-38.13-3.4-76.25c-.08-1.65,0-3.31,0-5.38Z"/><path class="a6f84944-a761-49dc-bbbc-d7bdccee3c05" d="M725.72,147.72c-.15,5.45-.28,10.89-.45,16.34q-.27,8.91-.6,17.81-.75,20.3-1.55,40.59c0,1.18-.39,2.37-.33,3.54.33,6.23-3,10.13-7.5,13.35-.94.67-1.92,1.27-2.88,1.9.16-7.61.19-15.23.5-22.84.74-18.8,1.72-37.59,2.35-56.4.13-4.15,1.12-7.32,4.48-9.63C721.81,151,723.73,149.28,725.72,147.72Z"/><path class="b8a2249b-5d82-4c1d-bd95-0d9630298e18" d="M900.44,767.37c-2.12,6.22-4.15,12.47-6.38,18.64-3.59,9.94-7.31,19.82-11.08,30,2.75,5.78,4.34,12.23,8.08,18l7.17-1.88c-.64.88-1.1,2.17-2,2.59-5.1,2.5-10.29,4.79-15.87,7.35a32.65,32.65,0,0,1-2-3.53c-2.13-5-4.18-10-6.35-15.19l19.32-52.14Z"/><path class="e2adc8ff-9f8f-4b6d-aed9-81da169e5891" d="M401.64,973.8v-7.3a26,26,0,0,1,4.16-.75q40.08,0,80.17,0a17.21,17.21,0,0,1,2,.24c-.18,2.33-.35,4.66-.55,7.44-2.06.06-3.82.14-5.57.14q-36,0-72.07,0C407.08,973.58,404.36,973.73,401.64,973.8Z"/><path class="b8a2249b-5d82-4c1d-bd95-0d9630298e18" d="M156.6,204.8a13.32,13.32,0,0,1-.52-8c1.89-.53,3.77-1.22,5.72-1.57q13.6-2.47,27.24-4.77c2.87-.49,5.78-.77,8.67-1.14.22,2.33.45,4.66.71,7.36a32.74,32.74,0,0,1-3.86,1.2c-12,2.1-24,4.14-36.05,6.22A10.72,10.72,0,0,0,156.6,204.8Z"/><path class="b8a2249b-5d82-4c1d-bd95-0d9630298e18" d="M495.34,1012.65a192,192,0,0,1-.08,22.11c-2.71,1.41-5.38.87-8,.68l-2.43-1.22q.13-11.43.26-22.85C488.51,1011.65,492.1,1010.61,495.34,1012.65Z"/><path class="f9bda68c-1e3e-412d-a0b1-633147043201" d="M635.67,313.92c0,.23.09.47.13.7,1.15,6.07-.23,11.1-5.28,14.78-1.81,1.33-3.43,3-5.13,4.44,0-6.31.07-12.63.11-19.28C629.08,313.33,632.42,314.15,635.67,313.92Z"/><path class="f9bda68c-1e3e-412d-a0b1-633147043201" d="M357.69,646.43A6.41,6.41,0,0,1,351,640a6.44,6.44,0,1,1,12.85.33A5.84,5.84,0,0,1,357.69,646.43Z"/><path class="f9bda68c-1e3e-412d-a0b1-633147043201" d="M1012.4,646.45a6.47,6.47,0,0,1-6.47-6.68,6.72,6.72,0,0,1,6.85-6.41,6.79,6.79,0,0,1,6,7.26A5.88,5.88,0,0,1,1012.4,646.45Z"/><path class="e2adc8ff-9f8f-4b6d-aed9-81da169e5891" d="M1086.32,438.44c-.07-.67-.13-1.33-.2-2,.26-.4.43-.92.78-1.16q16.27-11,32.6-21.86a8.52,8.52,0,0,1,1.91-.7c.21,2.83-1.56,4.15-3.56,5.44-8.21,5.33-16.37,10.74-24.58,16.08C1091,435.71,1088.64,437,1086.32,438.44Z"/><path class="e2adc8ff-9f8f-4b6d-aed9-81da169e5891" d="M698.38,977.22l-2-1.63c4.76-3.21,16.78-8.32,23.89-10.25-1.47,2.92-4,4.33-6.81,5.48C708.39,972.89,703.39,975.08,698.38,977.22Z"/><path class="b0f634b4-9413-40dd-b253-03059ab4bc3d" d="M264.23,631.9l.51-11.47,1.5,0c0,3.82,0,7.65,0,11.47Z"/><path class="e2adc8ff-9f8f-4b6d-aed9-81da169e5891" d="M495.34,1012.65c-3.24-2-6.83-1-10.27-1.28.72-.4,1.41-1.11,2.14-1.15,2.68-.16,5.38-.09,8.06-.11C495.29,1011,495.31,1011.81,495.34,1012.65Z"/><path class="a6f84944-a761-49dc-bbbc-d7bdccee3c05" d="M252.6,152c.08,2-.71,3.11-2.72,3C250.24,153.45,250.92,152.22,252.6,152Z"/><path class="a6f84944-a761-49dc-bbbc-d7bdccee3c05" d="M245.72,160.49c.16,2-.63,3.16-2.68,3.08C243.3,161.94,244,160.74,245.72,160.49Z"/><path class="a6f84944-a761-49dc-bbbc-d7bdccee3c05" d="M267.29,135c-.47,1.41-1.21,2.49-2.81,2.52C264.55,135.64,265.6,135,267.29,135Z"/><path class="a6f84944-a761-49dc-bbbc-d7bdccee3c05" d="M249.94,154.92c.21,1.52-.23,2.55-1.83,2.73C247.89,156.12,248.74,155.39,249.94,154.92Z"/><path class="a6f84944-a761-49dc-bbbc-d7bdccee3c05" d="M258.14,144.9c.15,1.49-.32,2.51-1.87,2.71A2.43,2.43,0,0,1,258.14,144.9Z"/><path class="a6f84944-a761-49dc-bbbc-d7bdccee3c05" d="M243.09,163.5c.23,1.54-.2,2.57-1.84,2.69C241,164.64,241.83,163.91,243.09,163.5Z"/><path class="e2adc8ff-9f8f-4b6d-aed9-81da169e5891" d="M484.81,1034.22l2.43,1.22-2.79-.1A1.07,1.07,0,0,1,484.81,1034.22Z"/><path class="a6f84944-a761-49dc-bbbc-d7bdccee3c05" d="M240.2,167.54c.07,1-.36,1.64-1.39,1.68C238.64,168.09,239,167.45,240.2,167.54Z"/><path class="a6f84944-a761-49dc-bbbc-d7bdccee3c05" d="M241.46,166c.1,1.09-.35,1.67-1.4,1.71C239.82,166.51,240.26,165.92,241.46,166Z"/><path class="a6f84944-a761-49dc-bbbc-d7bdccee3c05" d="M255.22,148.9l-1.43,1.71C253.67,149.5,254.09,148.87,255.22,148.9Z"/><path class="a6f84944-a761-49dc-bbbc-d7bdccee3c05" d="M256.5,147.38a1.49,1.49,0,0,1-1.46,1.74C254.91,148,255.37,147.36,256.5,147.38Z"/><path class="a6f84944-a761-49dc-bbbc-d7bdccee3c05" d="M253.93,150.44c-.47.55-.93,1.1-1.39,1.66C252.43,151,252.83,150.41,253.93,150.44Z"/><path class="a6f84944-a761-49dc-bbbc-d7bdccee3c05" d="M259.48,143.44c-.48.51-1,1-1.42,1.55C258.53,144.47,259,144,259.48,143.44Z"/><path class="a6f84944-a761-49dc-bbbc-d7bdccee3c05" d="M260.82,142l-1.43,1.56C259.41,142.54,259.8,141.94,260.82,142Z"/><path class="a6f84944-a761-49dc-bbbc-d7bdccee3c05" d="M262.13,140.41c-.47.56-.93,1.12-1.4,1.67C260.65,141,261.07,140.42,262.13,140.41Z"/><path class="a6f84944-a761-49dc-bbbc-d7bdccee3c05" d="M263.44,138.88c-.49.58-1,1.15-1.46,1.73C261.91,139.51,262.34,138.89,263.44,138.88Z"/><path class="a6f84944-a761-49dc-bbbc-d7bdccee3c05" d="M248.32,157.44c.07,1.06-.39,1.65-1.42,1.71C246.71,158,247.14,157.36,248.32,157.44Z"/><path class="a6f84944-a761-49dc-bbbc-d7bdccee3c05" d="M247.05,159c0,1-.4,1.61-1.4,1.68C245.51,159.53,245.89,158.9,247.05,159Z"/><path class="a6f84944-a761-49dc-bbbc-d7bdccee3c05" d="M264.72,137.36c-.5.58-1,1.17-1.48,1.76C263.15,138,263.61,137.38,264.72,137.36Z"/><path class="a6f84944-a761-49dc-bbbc-d7bdccee3c05" d="M695.79,915.12c1.24-1.63,2.4-3.34,3.75-4.87,2-2.26,4.11-4.4,6.09-6.49V863.64L694.8,852.57H622.89v-6.63a24.64,24.64,0,0,1,4-.71c25.16,0,50.33,0,75.5-.08A8.58,8.58,0,0,1,709,848c7.55,7.64,7.6,7.58,7.6,18.37,0,8.57-.08,17.14,0,25.7a8.93,8.93,0,0,1-2.66,7c-4.59,4.6-9,9.39-13.5,14.09C699.21,914.5,697.91,915.9,695.79,915.12Z"/><path class="a6f84944-a761-49dc-bbbc-d7bdccee3c05" d="M693.86,916.67c.43-1,.89-1.88,2.15-1.62C695.86,916.41,694.89,916.58,693.86,916.67Z"/><path class="a6f84944-a761-49dc-bbbc-d7bdccee3c05" d="M385.63,231.15c-1.25-15.43-2.5-30.87-3.79-46.74-2.9-2.35-6-4.73-8.95-7.31a7.62,7.62,0,0,0-6.29-1.88c-5.19.58-10.41.94-15.6,1.53-14.68,1.65-29.35,3.4-44,5.05-3.15.35-6.33.42-9.5.62a13.38,13.38,0,0,1,1.14-1.77c6.94-7.58,4-7.82,15.88-8.7,10.15-.74,20.23-2.5,30.35-3.75,4.28-.53,8.56-.92,12.85-1.32,6.54-.62,13.09-1.18,19.64-1.8a8.09,8.09,0,0,1,6.27,2.07c8.55,7.18,9.12,5.3,9.69,18.7.36,8.77,1.5,17.51,2.22,26.27a100.51,100.51,0,0,1,.42,14.93A26,26,0,0,1,385.63,231.15Z"/><path class="a6f84944-a761-49dc-bbbc-d7bdccee3c05" d="M850.49,345.45c.44-5.44.8-10.9,1.34-16.33,2-20.35,4.19-40.69,6.23-61,1.59-15.85,3.07-31.72,4.63-47.58.65-6.62,1.41-13.24,2.06-19.86.37-3.78.61-7.57.92-11.45l-9.32-11.08c-2.89-.42-6-1-9.15-1.3q-32.19-2.91-64.39-5.7a27.48,27.48,0,0,0-3.39.1c2.63-4.33,6.69-7.05,10.74-9.51,1.74-1.07,4.41-.8,6.62-.63q16.28,1.2,32.54,2.72c7,.66,14,1.6,20.95,2.33,2.94.3,5.9.35,8.85.55,4.44.3,7.9,2.19,11.33,5.48,5.18,5,6.41,10.19,4.85,17.19-1.28,5.75-1.22,11.81-1.81,17.73-.74,7.33-1.55,14.65-2.31,22-.51,5-1,9.93-1.49,14.9-.6,6.4-1.1,12.8-1.73,19.19-.65,6.62-1.42,13.23-2.11,19.85-.62,5.91-1.25,11.82-1.8,17.74-1,10.89-2,21.78-2.95,32.68a8.16,8.16,0,0,1-3,6.16C855.62,341.56,853,343.49,850.49,345.45Z"/><path class="ed3b45c3-791f-4dba-b35f-a99485276477" d="M541.42,701c4.08-1.5,6.43-3.74,8.9-5.76,17.58-14.36,35.21-28.65,52.69-43.15a236.19,236.19,0,0,1,33-22.81q20.94-12,42.9-21.85A103.41,103.41,0,0,1,689,603.11c26.12-8.59,52.72-12.54,80-8.32,14.94,2.31,29.27,6.69,42,15.64a4.88,4.88,0,0,0,1.83.37c.07-2.72.09-2.75-.53-3.22a77.46,77.46,0,0,0-17.91-10.21,110,110,0,0,0-40.64-8.06,185.75,185.75,0,0,0-57.28,7.49c-33.18,10-63.19,26.5-90.63,48.29-11.78,9.35-23.35,19-35,28.53q-11.85,9.66-23.7,19.32C544.86,694.81,542.45,696.6,541.42,701Z"/><path class="b0f634b4-9413-40dd-b253-03059ab4bc3d" d="M484.71,722.4l4.31,1.22a68.12,68.12,0,0,1-20.81,2.53c-1.22-1.45-2.89-1-4.41-1.23a24.15,24.15,0,0,1-3.69-1.22c2.66,0,5.34.2,8,0C473.65,723.39,479.18,722.86,484.71,722.4Z"/><path class="a6504681-1854-4199-aef7-ab132559cccd" d="M445.06,719.21c-3.61-.57-6.67-2.45-9.53-4.66-.46-.36-.45-1.57-.37-2.36,0-.2,1.38-.62,1.67-.37,3.34,2.9,7.58,3.76,11.32,5.72Z"/><path class="a6504681-1854-4199-aef7-ab132559cccd" d="M482,631.9l-7.2,2.84c1.5-2,2.24-3.2,4-3Z"/><path class="a6504681-1854-4199-aef7-ab132559cccd" d="M451.88,718.12l4.41.88C454.7,719.41,453.14,719.56,451.88,718.12Z"/><path class="b0f634b4-9413-40dd-b253-03059ab4bc3d" d="M335.58,626.55a51.54,51.54,0,0,1-1.91,8.05c-1.57,4-5.71,4.29-8,.75-3-4.68-3-15.1,0-19.8,1.9-3,5.28-3.1,7.3-.16S335,622.11,335.58,626.55Z"/><path class="aa3d4566-88ef-424a-974d-1bae840264b5" d="M528.7,491.25a13.56,13.56,0,0,1,1.29,2.46c1.42,6.46,6,8.62,11.58,9.13,8.26.76,16.26-.87,24.12-3.48,7.14-2.36,14.29-4.69,21.48-6.84A318.33,318.33,0,0,1,650,480.45a235.15,235.15,0,0,1,36.1-.16,29.35,29.35,0,0,1,8.51,1.54,2.53,2.53,0,0,1-2.42,3.06,27.76,27.76,0,0,1-4.73-.13c-34.1-2.19-67.57,1.28-100.14,12.55-5,1.71-9.82,3.69-14.67,5.71a78.91,78.91,0,0,1-35.36,5.75,20.64,20.64,0,0,1-7.17-1.95,6.67,6.67,0,0,1-3.83-7.61A65.38,65.38,0,0,1,528.7,491.25Z"/><path class="b7291245-8cb6-464a-9583-027c79acda71" d="M620.44,503.23c-1.81,2.14-3.63,4.26-5.41,6.42a44.87,44.87,0,0,0-7.32,12c-2.87,7.24-1.78,14,2.46,20.29a31.72,31.72,0,0,0,9.65,8.93,61.6,61.6,0,0,0,19.67,7.79c4,.91,8,1.51,13,2.41a25.85,25.85,0,0,1-4,.95,59.32,59.32,0,0,1-24.15-3.44c-10.1-3.82-17.68-10.41-21.48-21.37A23.69,23.69,0,0,1,605,516a36.26,36.26,0,0,1,13.16-13.16Z"/><path class="a6504681-1854-4199-aef7-ab132559cccd" d="M620.44,503.23l-2.26-.35,5.41-3.76.61.84Z"/><path class="a6504681-1854-4199-aef7-ab132559cccd" d="M458.57,544.47c-1.25,1-2.47,2.06-3.76,3-15.51,11.57-27.6,26.12-35.28,44.54-5.57,13.38-10.08,27.1-12,41.61-1.4,10.7-1.43,21.43,1,32a43,43,0,0,0,6.15,15,5.8,5.8,0,0,1,1.07,1.81,7,7,0,0,1,.15,3.26c-.33,1.07-2,.41-3.13-1.36-4.1-6.48-6.22-13.7-7.52-21.29-1.8-10.49-1.16-21,.31-31.36,2.81-19.78,8.75-38.42,19.13-55.36,7.45-12.16,16.4-22.84,27.7-31.22a35.19,35.19,0,0,1,3.53-2Z"/><path class="f9bda68c-1e3e-412d-a0b1-633147043201" d="M458.57,544.47,456,543.1l1.56-1,1.85,1.8A.78.78,0,0,1,458.57,544.47Z"/><path class="b7291245-8cb6-464a-9583-027c79acda71" d="M541.42,701c1-4.36,3.44-6.15,5.74-8q11.85-9.68,23.7-19.32c11.66-9.52,23.23-19.18,35-28.53,27.44-21.79,57.45-38.29,90.63-48.29a185.75,185.75,0,0,1,57.28-7.49,110,110,0,0,1,40.64,8.06,77.46,77.46,0,0,1,17.91,10.21c.62.47.6.5.53,3.22a4.88,4.88,0,0,1-1.83-.37c-12.76-8.95-27.09-13.33-42-15.64-27.31-4.22-53.91-.27-80,8.32a103.41,103.41,0,0,0-10.09,4.28q-21.95,9.86-42.9,21.85a236.19,236.19,0,0,0-33,22.81c-17.48,14.5-35.11,28.79-52.69,43.15C547.85,697.22,545.5,699.46,541.42,701Z"/></svg>