<svg id="e2c1436e-e57b-41af-8482-b2737f9d8513" data-name="Layer 1" xmlns="http://www.w3.org/2000/svg" viewBox="0 0 1200 914.03"><defs><style>.ed2f04de-1a3f-435d-8ccd-1a36c7b55f8f{fill:#fff;}</style></defs><path class="ed2f04de-1a3f-435d-8ccd-1a36c7b55f8f" d="M346.93,266.17c1.87-7.23,4-13.93,5.32-20.8,6.59-33.18,23.73-59.5,47.86-81.19,25.25-22.7,54.82-36.73,86.66-45.55A436.48,436.48,0,0,1,615.25,103c70.82,1.81,139.29,16.77,206.38,39.85,18.09,6.22,31,18.66,40.44,35.43a112.4,112.4,0,0,1,14.21,54c.43,27.72.4,55.45.6,83.18.07,10.53.23,21.05.36,32.07,4.41,1.77,7.91,3.46,11.58,4.61,42.86,13.41,82.95,32.77,119.3,60.41,4.41,3.35,9.84,5.49,15.08,7.33,19.2,6.73,38.14,14.05,55.91,24.37,15.34,8.91,29.52,19.43,41.41,33.08a106.2,106.2,0,0,1,23.25,44.48c7.94,31.37-9.41,63.09-34.39,75a73.35,73.35,0,0,1-29.29,7.41,843.3,843.3,0,0,1-96-2.26c-22.42-1.81-44.85-3.71-67.36-1.52C852.52,606.61,790.2,621,731.13,648.61c-96.06,44.86-194.85,81.93-295.23,114.46-39.7,12.87-79.64,24.78-120.42,33.48a607.49,607.49,0,0,1-81.77,11.55c-48.89,3.61-89-15.6-121.84-52.55C84,724.11,66.66,686.43,59.42,644.45,46.23,568,58.66,495.53,94.05,427.27c13.61-26.27,31.53-48.7,52.76-68.4C199.14,310.29,259.73,280.37,329,270c5-.75,10-1.66,15-2.53A23.89,23.89,0,0,0,346.93,266.17ZM296,784.72c5.57-.61,11.27-.6,16.68-1.93,38.25-9.43,76.83-17.7,114.53-29.15,36.63-11.13,72.73-24.5,108.34-38.87,67.62-27.27,134.69-56,202-84,67-27.87,136.2-44.71,208.52-44,38.78.38,77.54,2.82,116.28,4.86,9.69.51,19.15.11,28.44-2.3,19.47-5,32.88-21.73,35-42.75,1.94-19.17-2.53-36.58-14.62-51-7-8.34-14.86-16.36-23.65-22.42a222.57,222.57,0,0,0-108.76-39.24c-27.59-2.37-55,0-82.45,3.24-31.86,3.74-63.46,8.8-94.67,16.63-20.86,5.24-40.47,13.93-60.48,21.73A535.23,535.23,0,0,0,646,524.25c-43.78,28.13-84.08,61.08-122.1,97.21-11.24,10.68-22.62,21.37-35,30.54-40.36,30-81.24,59.23-121.82,88.9-25.12,18.37-52,32.66-81.75,40.81-13.68,1.12-27.35,2.43-41,3.29-6.57.41-13.19,0-19.79-.09L187.27,773.8l7.64-4.12,9.23,1.43c3.12,3.57,7,3.19,10.91,2.19,7.3.25,14.62.22,21.89.81a111.54,111.54,0,0,0,55.94-10c17.48-8,35-16.1,51.7-25.63,48-27.37,92.1-61,135.35-95.89a291.43,291.43,0,0,0,34.82-33.32c1.27-1.42,1.85-3.5,3.37-6.52-7-.7-12.53-1.51-18.07-1.76a531.56,531.56,0,0,1-88.52-11.61c-29.24-6.28-57.88-14.7-83.42-31.78a18.83,18.83,0,0,0-12.71-3.45c-12.28,1.17-24.55,2.47-36.83,3.72l-8-.43c9.7-8.74,21.68-11.51,33.7-14.19,3.72-.82,7.42-1.77,11.61-2.78,7.67-70.61,15.3-140.6,22.82-210.6.49-4.58.06-9.27.06-14.42-2.15-.55-4.24-1.42-6.38-1.59-24.28-1.9-48.23.22-71.2,8.94-13.11,5-25.65,11.61-38.45,17.49l-4.59-4.44c37.26-26.06,79-35.15,123.85-34.78.55-6,1-11,1.53-16.85-4,0-6.66-.31-9.27,0Q231.57,298,156.35,372.61A231.33,231.33,0,0,0,117,425.26c-24.28,44-38.95,91-42.45,142-4.13,60.08,11,114.26,43.85,163.17a153.42,153.42,0,0,0,51,48c12,6.92,24.56,11.89,38.21,12.59,12.3.63,24.65,0,37,0C262,791.81,279.09,789.2,296,784.72Zm566.79-363.6c.29-3.66.78-7.06.78-10.46q-.15-54-.44-107.93c-.09-20.05-.11-40.11-.31-60.16a118.52,118.52,0,0,0-11-49.53c-8.23-17.61-20.45-30.82-38.75-37-4.8-1.62-9.46-3.71-14.18-5.61a473.12,473.12,0,0,0-174.44-34.81c-21.3-.18-42.67,1.26-63.92,3.14a363,363,0,0,0-96.86,21.91c-24,9.07-46.09,21.68-65,40-18.7,18.16-31,39.93-36.09,66.39-7.87,41.1-12.27,82.68-16.57,124.28-3.27,31.65-6.07,63.35-8.91,95-1.26,14.09-2.15,28.21-3.1,42.33-.07,1.05.74,2.17,1.5,4.25,1.87.84,4.33,2.09,6.88,3.09a579.92,579.92,0,0,0,85.66,25.89c43,9.63,86.5,14.28,130.56,12.26,8.68-.4,16.66-1.83,23.54-7.79a83.66,83.66,0,0,1,7-4.9c70.76-49.25,146.93-86,229-109.2C832.67,428.2,847.42,425,862.77,421.12Zm119.4-7.2a500.89,500.89,0,0,0-84.82-42.54c-6-2.36-12.07-6.2-19.81-4.48-1.84,9.49-1,18.83-1,28.07,0,9.06-1.67,18.35,1.08,26.46Z"/><path class="ed2f04de-1a3f-435d-8ccd-1a36c7b55f8f" d="M425.57,728.68c10.09-3.72,15.9-9.26,22-14.25,43.47-35.52,87.09-70.85,130.31-106.71a581.61,581.61,0,0,1,81.55-56.41,1187.92,1187.92,0,0,1,106.08-54c8.25-3.71,16.42-7.79,25-10.6,64.59-21.23,130.38-31,197.9-20.56,37,5.71,72.41,16.53,103.95,38.67,1.16.81,3,.62,4.54.92.17-6.72.22-6.8-1.31-8a192.6,192.6,0,0,0-44.3-25.24c-32.29-13.43-66.07-19.31-100.51-19.92-48-.85-95.32,4.53-141.66,18.5-82,24.74-156.26,65.54-224.12,119.43-29.14,23.14-57.74,47-86.6,70.55q-29.3,23.91-58.6,47.79C434.09,713.48,428.13,717.89,425.57,728.68Z"/><path class="ed2f04de-1a3f-435d-8ccd-1a36c7b55f8f" d="M285.32,781.71l10.66,3c-16.89,4.48-34,7.09-51.46,6.25-3-3.57-7.13-2.4-10.9-3-3.12-.52-6.1-2-9.14-3,6.6.06,13.22.5,19.79.09C258,784.14,271.64,782.83,285.32,781.71Z"/><path class="ed2f04de-1a3f-435d-8ccd-1a36c7b55f8f" d="M187.27,773.8c-8.93-1.39-16.49-6-23.56-11.52-1.14-.87-1.11-3.88-.93-5.83,0-.48,3.42-1.54,4.14-.92,8.25,7.17,18.74,9.3,28,14.15Z"/><path class="ed2f04de-1a3f-435d-8ccd-1a36c7b55f8f" d="M278.57,557.9l-17.79,7c3.69-5,5.53-7.91,9.8-7.45Z"/><path class="ed2f04de-1a3f-435d-8ccd-1a36c7b55f8f" d="M204.14,771.11l10.91,2.19C211.1,774.3,207.26,774.68,204.14,771.11Z"/><path class="ed2f04de-1a3f-435d-8ccd-1a36c7b55f8f" d="M394.12,210.06c1.66,3.1,2.83,4.48,3.18,6.07,3.53,16,14.87,21.31,28.64,22.58,20.44,1.89,40.21-2.16,59.66-8.6,17.65-5.84,35.33-11.61,53.12-16.92a787.48,787.48,0,0,1,155.44-29.85c29.69-2.67,59.5-2.31,89.26-.39,7.18.46,14.39,1.28,21.05,3.8.38,5.18-2.47,7.18-6,7.57-3.84.43-7.79-.06-11.68-.31-84.34-5.43-167.11,3.15-247.65,31-12.25,4.24-24.3,9.13-36.29,14.12-28.14,11.71-57.39,16-87.45,14.22a50.61,50.61,0,0,1-17.74-4.81c-7.43-3.42-10.88-10.44-9.47-18.83C389.24,223.5,391.8,217.55,394.12,210.06Z"/><path class="ed2f04de-1a3f-435d-8ccd-1a36c7b55f8f" d="M621,239.68c-4.46,5.28-9,10.52-13.37,15.87-7.39,9-13.75,18.68-18.1,29.68-7.1,17.91-4.41,34.63,6.09,50.19,6.28,9.31,14.66,16.23,23.86,22.09,15.06,9.58,31.56,15.35,48.64,19.25,9.86,2.25,19.89,3.73,32.09,6-4.46,1.1-7.08,2.2-9.75,2.33-20.4,1-40.47-1.21-59.74-8.5-25-9.44-43.73-25.75-53.13-52.85-6.46-18.64-4.73-35.94,5.29-52.36,8.28-13.56,18.82-24.86,32.55-32.53Z"/><path class="ed2f04de-1a3f-435d-8ccd-1a36c7b55f8f" d="M220.69,341.66c-3.1,2.5-6.12,5.1-9.31,7.48-38.37,28.62-68.26,64.58-87.24,110.15-13.78,33.08-24.93,67-29.6,102.9-3.44,26.46-3.52,53,2.55,79.13,3.07,13.22,7.48,26,15.21,37.15,1,1.43,2.32,2.86,2.66,4.47.55,2.63,1.11,5.66.37,8.07-.82,2.64-5,1-7.75-3.37C97.44,671.63,92.2,653.76,89,635c-4.45-25.94-2.88-51.82.78-77.54,6.94-48.92,21.62-95,47.29-136.91,18.43-30.08,40.56-56.49,68.52-77.21,2.69-2,5.81-3.38,8.73-5Z"/><path class="ed2f04de-1a3f-435d-8ccd-1a36c7b55f8f" d="M220.69,341.66l-6.38-3.37,3.84-2.41,4.59,4.44A1.91,1.91,0,0,1,220.69,341.66Z"/><path class="ed2f04de-1a3f-435d-8ccd-1a36c7b55f8f" d="M425.57,728.68c2.56-10.79,8.52-15.2,14.2-19.84q29.3-23.91,58.6-47.79c28.86-23.53,57.46-47.41,86.6-70.55,67.86-53.89,142.08-94.69,224.12-119.43,46.34-14,93.69-19.35,141.66-18.5,34.44.61,68.22,6.49,100.51,19.92a192.6,192.6,0,0,1,44.3,25.24c1.53,1.18,1.48,1.26,1.31,8-1.58-.3-3.38-.11-4.54-.92-31.54-22.14-67-33-103.95-38.67-67.52-10.44-133.31-.67-197.9,20.56-8.54,2.81-16.71,6.89-25,10.6a1187.92,1187.92,0,0,0-106.08,54,581.61,581.61,0,0,0-81.55,56.41c-43.22,35.86-86.84,71.19-130.31,106.71C441.47,719.42,435.66,725,425.57,728.68Z"/></svg>